<svg version="1.1" viewBox="0.0 0.0 960.0 720.0" fill="none" stroke="none" stroke-linecap="square" stroke-miterlimit="10" xmlns:xlink="http://www.w3.org/1999/xlink" xmlns="http://www.w3.org/2000/svg"><clipPath id="p.0"><path d="m0 0l960.0 0l0 720.0l-960.0 0l0 -720.0z" clip-rule="nonzero"/></clipPath><g clip-path="url(#p.0)"><path fill="#000000" fill-opacity="0.0" d="m0 0l960.0 0l0 720.0l-960.0 0z" fill-rule="evenodd"/><path fill="#000000" fill-opacity="0.0" d="m179.43832 228.46982l749.92126 0l0 468.03152l-749.92126 0z" fill-rule="evenodd"/><path stroke="#1f1f1a" stroke-width="2.0" stroke-linejoin="round" stroke-linecap="butt" stroke-dasharray="8.0,6.0" d="m179.43832 228.46982l749.92126 0l0 468.03152l-749.92126 0z" fill-rule="evenodd"/><path fill="#fe5000" d="m427.96326 463.67804l0 0c0 -15.552887 30.46109 -28.16098 68.03674 -28.16098c37.575684 0 68.03674 12.608093 68.03674 28.16098l0 112.64392c0 15.552856 -30.46106 28.16095 -68.03674 28.16095c-37.575653 0 -68.03674 -12.608093 -68.03674 -28.16095z" fill-rule="evenodd"/><path fill="#000000" fill-opacity="0.0" d="m564.03674 463.67804l0 0c0 15.552887 -30.46106 28.16098 -68.03674 28.16098c-37.575653 0 -68.03674 -12.608093 -68.03674 -28.16098" fill-rule="evenodd"/><path fill="#000000" fill-opacity="0.0" d="m427.96326 463.67804l0 0c0 -15.552887 30.46109 -28.16098 68.03674 -28.16098c37.575684 0 68.03674 12.608093 68.03674 28.16098l0 112.64392c0 15.552856 -30.46106 28.16095 -68.03674 28.16095c-37.575653 0 -68.03674 -12.608093 -68.03674 -28.16095z" fill-rule="evenodd"/><path stroke="#1f1f1a" stroke-width="1.0" stroke-linejoin="round" stroke-linecap="butt" d="m564.03674 463.67804l0 0c0 15.552887 -30.46106 28.16098 -68.03674 28.16098c-37.575653 0 -68.03674 -12.608093 -68.03674 -28.16098" fill-rule="evenodd"/><path stroke="#1f1f1a" stroke-width="1.0" stroke-linejoin="round" stroke-linecap="butt" d="m427.96326 463.67804l0 0c0 -15.552887 30.46109 -28.16098 68.03674 -28.16098c37.575684 0 68.03674 12.608093 68.03674 28.16098l0 112.64392c0 15.552856 -30.46106 28.16095 -68.03674 28.16095c-37.575653 0 -68.03674 -12.608093 -68.03674 -28.16095z" fill-rule="evenodd"/><path fill="#000000" fill-opacity="0.0" d="m444.0847 514.56885l103.18112 0l0 50.92914l-103.18112 0z" fill-rule="evenodd"/><path fill="#000000" d="m464.38812 541.18695l0 3.015625l0.875 0q0.859375 0 1.234375 0.34375q0.375 0.328125 0.375 0.859375q0 0.53125 -0.375 0.875q-0.375 0.328125 -1.234375 0.328125l-3.640625 0q-0.875 0 -1.25 -0.328125q-0.359375 -0.34375 -0.359375 -0.875q0 -0.53125 0.375 -0.859375q0.375 -0.34375 1.234375 -0.34375l0.375 0l0 -9.390625l-0.375 0q-0.875 0 -1.25 -0.328125q-0.359375 -0.34375 -0.359375 -0.890625q0 -0.53125 0.359375 -0.859375q0.375 -0.34375 1.25 -0.34375l5.4375 0.015625q2.53125 0 3.9375 1.265625q1.40625 1.25 1.40625 3.0625q0 1.125 -0.65625 2.046875q-0.65625 0.90625 -1.984375 1.625q0.765625 0.671875 1.625 1.71875q0.546875 0.65625 1.453125 2.078125q0.921875 0 1.203125 0.1875q0.53125 0.359375 0.53125 1.015625q0 0.53125 -0.359375 0.875q-0.359375 0.328125 -1.234375 0.328125l-1.375 0q-2.90625 -4.515625 -4.828125 -5.421875l-2.390625 0zm0 -2.40625l1.875 0q1.046875 0 1.875 -0.3125q1.09375 -0.421875 1.46875 -0.890625q0.390625 -0.46875 0.390625 -0.9375q0 -0.671875 -0.734375 -1.25q-0.71875 -0.578125 -2.109375 -0.578125l-2.765625 0l0 3.96875zm22.917969 3.71875l-9.859375 0q0.375 0.9375 1.328125 1.515625q0.953125 0.578125 2.59375 0.578125q1.328125 0 3.546875 -0.578125q0.90625 -0.234375 1.265625 -0.234375q0.484375 0 0.8125 0.34375q0.328125 0.34375 0.328125 0.859375q0 0.46875 -0.359375 0.796875q-0.46875 0.421875 -2.28125 0.828125q-1.8125 0.390625 -3.5 0.390625q-2.875 0 -4.609375 -1.625q-1.71875 -1.640625 -1.71875 -4.015625q0 -2.53125 1.859375 -4.109375q1.875 -1.59375 4.3125 -1.59375q1.46875 0 2.6875 0.515625q1.21875 0.515625 1.828125 1.109375q0.84375 0.859375 1.390625 2.140625q0.375 0.890625 0.375 2.0625l0 1.015625zm-2.65625 -2.390625q-0.5625 -1.03125 -1.453125 -1.546875q-0.890625 -0.515625 -2.109375 -0.515625q-1.21875 0 -2.109375 0.515625q-0.890625 0.515625 -1.453125 1.546875l7.125 0zm16.542969 -8.703125l0 12.796875l0.40625 0q0.859375 0 1.234375 0.34375q0.375 0.328125 0.375 0.859375q0 0.53125 -0.375 0.875q-0.359375 0.328125 -1.234375 0.328125l-2.8125 0l0 -0.59375q-0.8125 0.484375 -1.71875 0.734375q-0.890625 0.25 -1.859375 0.25q-2.703125 0 -4.359375 -1.5625q-1.640625 -1.578125 -1.640625 -3.90625q0 -2.4375 1.734375 -4.15625q1.734375 -1.71875 4.21875 -1.71875q0.9375 0 1.84375 0.28125q0.90625 0.28125 1.78125 0.859375l0 -2.984375l-0.40625 0q-0.875 0 -1.25 -0.328125q-0.359375 -0.34375 -0.359375 -0.875q0 -0.53125 0.359375 -0.859375q0.375 -0.34375 1.25 -0.34375l2.8125 0zm-2.40625 10.203125q0 -1.5 -1.046875 -2.53125q-1.03125 -1.03125 -2.546875 -1.03125q-1.5 0 -2.546875 1.03125q-1.046875 1.03125 -1.046875 2.484375q0 1.328125 0.9375 2.1875q0.9375 0.84375 2.65625 0.84375q1.703125 0 2.640625 -0.84375q0.953125 -0.859375 0.953125 -2.140625zm12.152344 -10.203125l0 2.546875l-2.859375 0l0 -2.546875l2.859375 0zm0.328125 4.5625l0 8.234375l2.890625 0q0.859375 0 1.21875 0.34375q0.375 0.328125 0.375 0.859375q0 0.53125 -0.375 0.875q-0.359375 0.328125 -1.21875 0.328125l-8.171875 0q-0.875 0 -1.25 -0.328125q-0.359375 -0.34375 -0.359375 -0.875q0 -0.53125 0.359375 -0.859375q0.375 -0.34375 1.25 -0.34375l2.875 0l0 -5.828125l-1.921875 0q-0.859375 0 -1.234375 -0.328125q-0.375 -0.34375 -0.375 -0.890625q0 -0.515625 0.359375 -0.84375q0.375 -0.34375 1.25 -0.34375l4.328125 0zm15.808594 2.8125q-0.578125 -0.359375 -1.234375 -0.546875q-0.640625 -0.1875 -1.34375 -0.1875q-1.390625 0 -2.21875 0.46875q-0.359375 0.1875 -0.359375 0.421875q0 0.28125 0.5 0.53125q0.375 0.1875 1.671875 0.359375q2.390625 0.328125 3.328125 0.65625q1.234375 0.4375 1.890625 1.296875q0.671875 0.859375 0.671875 1.796875q0 1.296875 -1.140625 2.15625q-1.625 1.265625 -4.21875 1.265625q-1.046875 0 -1.9375 -0.1875q-0.875 -0.171875 -1.625 -0.53125q-0.171875 0.15625 -0.375 0.234375q-0.1875 0.078125 -0.40625 0.078125q-0.5625 0 -0.90625 -0.359375q-0.328125 -0.375 -0.328125 -1.25l0 -0.796875q0 -0.875 0.328125 -1.234375q0.34375 -0.375 0.890625 -0.375q0.421875 0 0.71875 0.25q0.296875 0.234375 0.453125 0.8125q0.5625 0.46875 1.328125 0.71875q0.78125 0.234375 1.78125 0.234375q1.65625 0 2.5625 -0.515625q0.4375 -0.265625 0.4375 -0.546875q0 -0.46875 -0.625 -0.765625q-0.609375 -0.3125 -2.5625 -0.515625q-2.890625 -0.3125 -3.859375 -1.171875q-0.984375 -0.859375 -0.984375 -2.109375q0 -1.296875 1.09375 -2.140625q1.484375 -1.171875 3.875 -1.171875q0.828125 0 1.59375 0.15625q0.765625 0.15625 1.46875 0.484375q0.21875 -0.171875 0.40625 -0.25q0.203125 -0.078125 0.375 -0.078125q0.484375 0 0.8125 0.375q0.328125 0.359375 0.328125 1.234375l0 0.578125q0 0.78125 -0.1875 1.0625q-0.375 0.546875 -1.015625 0.546875q-0.4375 0 -0.765625 -0.265625q-0.328125 -0.28125 -0.421875 -0.71875z" fill-rule="nonzero"/><path fill="#406bff" d="m222.95013 396.91864l129.35434 0l0 88.22046l-129.35434 0z" fill-rule="evenodd"/><path stroke="#1f1f1a" stroke-width="1.0" stroke-linejoin="round" stroke-linecap="butt" d="m222.95013 396.91864l129.35434 0l0 88.22046l-129.35434 0z" fill-rule="evenodd"/><path fill="#406bff" d="m218.01575 401.7034l129.35434 0l0 88.22049l-129.35434 0z" fill-rule="evenodd"/><path stroke="#1f1f1a" stroke-width="1.0" stroke-linejoin="round" stroke-linecap="butt" d="m218.01575 401.7034l129.35434 0l0 88.22049l-129.35434 0z" fill-rule="evenodd"/><path fill="#406bff" d="m213.08136 406.4882l129.35434 0l0 88.22046l-129.35434 0z" fill-rule="evenodd"/><path stroke="#1f1f1a" stroke-width="1.0" stroke-linejoin="round" stroke-linecap="butt" d="m213.08136 406.4882l129.35434 0l0 88.22046l-129.35434 0z" fill-rule="evenodd"/><path fill="#406bff" d="m222.95013 552.7323l129.35434 0l0 88.22046l-129.35434 0z" fill-rule="evenodd"/><path stroke="#1f1f1a" stroke-width="1.0" stroke-linejoin="round" stroke-linecap="butt" d="m222.95013 552.7323l129.35434 0l0 88.22046l-129.35434 0z" fill-rule="evenodd"/><path fill="#406bff" d="m218.01575 557.5171l129.35434 0l0 88.22046l-129.35434 0z" fill-rule="evenodd"/><path stroke="#1f1f1a" stroke-width="1.0" stroke-linejoin="round" stroke-linecap="butt" d="m218.01575 557.5171l129.35434 0l0 88.22046l-129.35434 0z" fill-rule="evenodd"/><path fill="#406bff" d="m213.08136 562.3018l129.35434 0l0 88.22052l-129.35434 0z" fill-rule="evenodd"/><path stroke="#1f1f1a" stroke-width="1.0" stroke-linejoin="round" stroke-linecap="butt" d="m213.08136 562.3018l129.35434 0l0 88.22052l-129.35434 0z" fill-rule="evenodd"/><path fill="#000000" fill-opacity="0.0" d="m223.85039 426.60104l109.16536 0l0 50.834656l-109.16536 0z" fill-rule="evenodd"/><path fill="#000000" d="m246.90482 445.8023l0 -0.546875l2.1875 0q0.671875 0 0.953125 0.265625q0.296875 0.25 0.296875 0.671875q0 0.40625 -0.296875 0.671875q-0.28125 0.25 -0.953125 0.25l-0.328125 0l0 6.796875q0 0.984375 -0.421875 1.71875q-0.40625 0.734375 -1.265625 1.265625q-0.84375 0.53125 -1.921875 0.53125l-2.109375 0q-0.6875 0 -0.96875 -0.265625q-0.28125 -0.265625 -0.28125 -0.671875q0 -0.421875 0.28125 -0.6875q0.28125 -0.25 0.96875 -0.25l2.046875 0q0.859375 0 1.328125 -0.46875q0.484375 -0.453125 0.484375 -1.171875l0 -0.90625q-0.625 0.390625 -1.265625 0.59375q-0.640625 0.203125 -1.3125 0.203125q-1.90625 0 -3.203125 -1.265625q-1.28125 -1.28125 -1.28125 -3.140625q0 -1.875 1.28125 -3.140625q1.296875 -1.28125 3.203125 -1.28125q0.703125 0 1.34375 0.203125q0.640625 0.203125 1.234375 0.625zm-0.015625 3.578125q0 -1.03125 -0.765625 -1.78125q-0.75 -0.75 -1.8125 -0.75q-1.078125 0 -1.84375 0.75q-0.75 0.75 -0.75 1.78125q0 1.046875 0.75 1.796875q0.765625 0.75 1.84375 0.75q1.0625 0 1.8125 -0.75q0.765625 -0.75 0.765625 -1.796875zm10.836212 4.140625l0 -0.4375q-0.703125 0.375 -1.5625 0.5625q-0.84376526 0.1875 -1.5312653 0.1875q-1.5 0 -2.4375 -0.796875q-0.9375 -0.796875 -0.9375 -1.765625q0 -1.171875 1.1875 -2.171875q1.203125 -1.015625 3.3125 -1.015625q0.85939026 0 1.9687653 0.1875l0 -0.453125q0 -0.421875 -0.359375 -0.6875q-0.359375 -0.265625 -1.3750153 -0.265625q-0.828125 0 -2.15625 0.328125q-0.484375 0.125 -0.765625 0.125q-0.359375 0 -0.625 -0.265625q-0.265625 -0.265625 -0.265625 -0.6875q0 -0.234375 0.09375 -0.40625q0.09375 -0.1875 0.25 -0.28125q0.171875 -0.109375 0.6875 -0.25q0.703125 -0.203125 1.421875 -0.3125q0.71875 -0.109375 1.296875 -0.109375q1.7343903 0 2.6875153 0.75q0.96875 0.75 0.96875 2.046875l0 3.84375l0.328125 0q0.671875 0 0.953125 0.265625q0.296875 0.265625 0.296875 0.6875q0 0.40625 -0.296875 0.671875q-0.28125 0.25 -0.953125 0.25l-2.1875 0zm0 -3.34375q-1.125 -0.21875 -2.0781403 -0.21875q-1.125 0 -1.953125 0.5625q-0.515625 0.34375 -0.515625 0.71875q0 0.265625 0.25 0.421875q0.453125 0.296875 1.25 0.296875q0.671875 0 1.5156403 -0.265625q0.859375 -0.265625 1.53125 -0.71875l0 -0.796875zm9.054932 -3.0625l0 3.75q0 0.59375 0.25 0.78125q0.375 0.3125 1.359375 0.3125q1.4375 0 2.640625 -0.609375q0.46875 -0.234375 0.734375 -0.234375q0.359375 0 0.625 0.265625q0.265625 0.265625 0.265625 0.671875q0 0.359375 -0.28125 0.625q-0.453125 0.421875 -1.765625 0.78125q-1.3125 0.359375 -2.21875 0.359375q-1.734375 0 -2.609375 -0.75q-0.875 -0.75 -0.875 -1.84375l0 -4.109375l-0.671875 0q-0.671875 0 -0.96875 -0.25q-0.28125 -0.265625 -0.28125 -0.6875q0 -0.40625 0.28125 -0.65625q0.296875 -0.265625 0.96875 -0.265625l0.671875 0l0 -1.6875q0 -0.671875 0.265625 -0.953125q0.265625 -0.296875 0.671875 -0.296875q0.421875 0 0.671875 0.296875q0.265625 0.28125 0.265625 0.953125l0 1.6875l3.453125 0q0.671875 0 0.953125 0.265625q0.296875 0.25 0.296875 0.671875q0 0.40625 -0.296875 0.671875q-0.28125 0.25 -0.953125 0.25l-3.453125 0zm16.336212 3.21875l-7.65625 0q0.296875 0.734375 1.03125 1.1875q0.75 0.4375 2.015625 0.4375q1.03125 0 2.75 -0.453125q0.71875 -0.1875 0.984375 -0.1875q0.375 0 0.625 0.265625q0.265625 0.265625 0.265625 0.671875q0 0.359375 -0.28125 0.625q-0.359375 0.328125 -1.78125 0.640625q-1.40625 0.296875 -2.703125 0.296875q-2.25 0 -3.59375 -1.265625q-1.34375 -1.265625 -1.34375 -3.109375q0 -1.96875 1.453125 -3.203125q1.453125 -1.234375 3.359375 -1.234375q1.140625 0 2.078125 0.40625q0.953125 0.390625 1.421875 0.859375q0.65625 0.671875 1.09375 1.671875q0.28125 0.6875 0.28125 1.59375l0 0.796875zm-2.0625 -1.875q-0.4375 -0.796875 -1.125 -1.1875q-0.6875 -0.40625 -1.640625 -0.40625q-0.953125 0 -1.65625 0.40625q-0.6875 0.390625 -1.125 1.1875l5.546875 0zm8.586182 1.625l-1.296875 3.4375l-1.75 0l-1.5625 -6.40625q-0.515625 -0.03125 -0.78125 -0.28125q-0.25 -0.265625 -0.25 -0.65625q0 -0.40625 0.28125 -0.65625q0.28125 -0.265625 0.96875 -0.265625l1.734375 0q0.671875 0 0.953125 0.265625q0.296875 0.25 0.296875 0.671875q0 0.40625 -0.328125 0.703125q-0.25 0.21875 -0.96875 0.21875l0.703125 2.96875l1.15625 -3.046875l1.671875 0l1.15625 3.046875l0.734375 -2.96875q-0.6875 0 -0.90625 -0.140625q-0.4375 -0.28125 -0.4375 -0.796875q0 -0.40625 0.28125 -0.65625q0.28125 -0.265625 0.953125 -0.265625l1.765625 0q0.671875 0 0.953125 0.265625q0.296875 0.25 0.296875 0.671875q0 0.375 -0.25 0.640625q-0.25 0.25 -0.75 0.28125l-1.53125 6.40625l-1.71875 0l-1.375 -3.4375zm12.867462 3.4375l0 -0.4375q-0.703125 0.375 -1.5625 0.5625q-0.84375 0.1875 -1.53125 0.1875q-1.5 0 -2.4375 -0.796875q-0.9375 -0.796875 -0.9375 -1.765625q0 -1.171875 1.1875 -2.171875q1.203125 -1.015625 3.3125 -1.015625q0.859375 0 1.96875 0.1875l0 -0.453125q0 -0.421875 -0.359375 -0.6875q-0.359375 -0.265625 -1.375 -0.265625q-0.828125 0 -2.15625 0.328125q-0.484375 0.125 -0.765625 0.125q-0.359375 0 -0.625 -0.265625q-0.265625 -0.265625 -0.265625 -0.6875q0 -0.234375 0.09375 -0.40625q0.09375 -0.1875 0.25 -0.28125q0.171875 -0.109375 0.6875 -0.25q0.703125 -0.203125 1.421875 -0.3125q0.71875 -0.109375 1.296875 -0.109375q1.734375 0 2.6875 0.75q0.96875 0.75 0.96875 2.046875l0 3.84375l0.328125 0q0.671875 0 0.953125 0.265625q0.296875 0.265625 0.296875 0.6875q0 0.40625 -0.296875 0.671875q-0.28125 0.25 -0.953125 0.25l-2.1875 0zm0 -3.34375q-1.125 -0.21875 -2.078125 -0.21875q-1.125 0 -1.953125 0.5625q-0.515625 0.34375 -0.515625 0.71875q0 0.265625 0.25 0.421875q0.453125 0.296875 1.25 0.296875q0.671875 0 1.515625 -0.265625q0.859375 -0.265625 1.53125 -0.71875l0 -0.796875zm8.476807 3.28125l-3.234375 -6.34375q-0.46875 -0.046875 -0.703125 -0.296875q-0.234375 -0.265625 -0.234375 -0.625q0 -0.421875 0.28125 -0.671875q0.296875 -0.265625 0.96875 -0.265625l1.703125 0q0.671875 0 0.953125 0.265625q0.296875 0.25 0.296875 0.671875q0 0.40625 -0.296875 0.671875q-0.28125 0.25 -0.90625 0.25l2.21875 4.296875l2.171875 -4.296875q-0.59375 0 -0.890625 -0.25q-0.28125 -0.265625 -0.28125 -0.6875q0 -0.40625 0.28125 -0.65625q0.296875 -0.265625 0.96875 -0.265625l1.765625 0q0.65625 0 0.9375 0.265625q0.296875 0.25 0.296875 0.671875q0 0.375 -0.25 0.640625q-0.25 0.25 -0.71875 0.28125l-4.28125 8.4375q0.6875 0 0.90625 0.140625q0.4375 0.28125 0.4375 0.796875q0 0.40625 -0.28125 0.671875q-0.28125 0.265625 -0.953125 0.265625l-4.078125 0q-0.671875 0 -0.96875 -0.265625q-0.28125 -0.265625 -0.28125 -0.671875q0 -0.421875 0.28125 -0.6875q0.296875 -0.25 0.96875 -0.25l1.859375 0l1.0625 -2.09375z" fill-rule="nonzero"/><path fill="#000000" fill-opacity="0.0" d="m223.85039 578.6011l109.16536 0l0 50.834595l-109.16536 0z" fill-rule="evenodd"/><path fill="#000000" d="m253.72539 604.4898l0 3.0625l1.125 0q0.671875 0 0.953125 0.25q0.28126526 0.265625 0.28126526 0.6875q0 0.40625 -0.28126526 0.671875q-0.28125 0.265625 -0.953125 0.265625l-3.3125 0q-0.671875 0 -0.96875 -0.265625q-0.28125 -0.265625 -0.28125 -0.671875q0 -0.421875 0.28125 -0.6875q0.296875 -0.25 0.96875 -0.25l0.3125 0l0 -8.4375l-0.3125 0q-0.671875 0 -0.96875 -0.25q-0.28125 -0.265625 -0.28125 -0.6875q0 -0.40625 0.28125 -0.65625q0.296875 -0.265625 0.96875 -0.265625l2.1875 0l0 0.625q0.65625 -0.4375 1.359375 -0.65625q0.703125 -0.21875 1.4375153 -0.21875q1.90625 0 3.25 1.296875q1.359375 1.296875 1.359375 2.96875q0 1.859375 -1.59375 3.0625q-1.328125 1.0 -3.0 1.0q-0.71876526 0 -1.4218903 -0.203125q-0.703125 -0.21875 -1.390625 -0.640625zm5.5312653 -3.203125q0 -0.390625 -0.3125 -1.0q-0.296875 -0.609375 -0.9375 -1.015625q-0.640625 -0.40625 -1.515625 -0.40625q-1.3906403 0 -2.2187653 1.046875q-0.546875 0.734375 -0.546875 1.390625q0 0.75 0.796875 1.453125q0.796875 0.703125 1.9687653 0.703125q1.1875 0 1.96875 -0.703125q0.796875 -0.703125 0.796875 -1.46875zm9.664307 4.234375l0 -0.4375q-0.703125 0.375 -1.5625 0.5625q-0.84375 0.1875 -1.53125 0.1875q-1.5 0 -2.4375 -0.796875q-0.9375 -0.796875 -0.9375 -1.765625q0 -1.171875 1.1875 -2.171875q1.203125 -1.015625 3.3125 -1.015625q0.859375 0 1.96875 0.1875l0 -0.453125q0 -0.421875 -0.359375 -0.6875q-0.359375 -0.265625 -1.375 -0.265625q-0.828125 0 -2.15625 0.328125q-0.484375 0.125 -0.765625 0.125q-0.359375 0 -0.625 -0.265625q-0.265625 -0.265625 -0.265625 -0.6875q0 -0.234375 0.09375 -0.40625q0.09375 -0.1875 0.25 -0.28125q0.171875 -0.109375 0.6875 -0.25q0.703125 -0.203125 1.421875 -0.3125q0.71875 -0.109375 1.296875 -0.109375q1.734375 0 2.6875 0.75q0.96875 0.75 0.96875 2.046875l0 3.84375l0.328125 0q0.671875 0 0.953125 0.265625q0.296875 0.265625 0.296875 0.6875q0 0.40625 -0.296875 0.671875q-0.28125 0.25 -0.953125 0.25l-2.1875 0zm0 -3.34375q-1.125 -0.21875 -2.078125 -0.21875q-1.125 0 -1.953125 0.5625q-0.515625 0.34375 -0.515625 0.71875q0 0.265625 0.25 0.421875q0.453125 0.296875 1.25 0.296875q0.671875 0 1.515625 -0.265625q0.859375 -0.265625 1.53125 -0.71875l0 -0.796875zm9.117462 -4.921875l0 1.15625q1.1875 -0.84375 1.859375 -1.125q0.6875 -0.28125 1.265625 -0.28125q0.921875 0 1.78125 0.671875q0.578125 0.453125 0.578125 0.921875q0 0.40625 -0.28125 0.6875q-0.28125 0.28125 -0.671875 0.28125q-0.34375 0 -0.734375 -0.34375q-0.375 -0.359375 -0.671875 -0.359375q-0.390625 0 -1.171875 0.5q-0.78125 0.484375 -1.953125 1.46875l0 2.8125l2.671875 0q0.671875 0 0.953125 0.265625q0.296875 0.265625 0.296875 0.6875q0 0.40625 -0.296875 0.671875q-0.28125 0.25 -0.953125 0.25l-5.640625 0q-0.671875 0 -0.96875 -0.25q-0.28125 -0.265625 -0.28125 -0.6875q0 -0.40625 0.28125 -0.671875q0.296875 -0.265625 0.96875 -0.265625l1.109375 0l0 -4.53125l-0.671875 0q-0.671875 0 -0.96875 -0.25q-0.28125 -0.265625 -0.28125 -0.6875q0 -0.40625 0.28125 -0.65625q0.296875 -0.265625 0.96875 -0.265625l2.53125 0zm11.133057 1.859375l0 3.75q0 0.59375 0.25 0.78125q0.375 0.3125 1.359375 0.3125q1.4375 0 2.640625 -0.609375q0.46875 -0.234375 0.734375 -0.234375q0.359375 0 0.625 0.265625q0.265625 0.265625 0.265625 0.671875q0 0.359375 -0.28125 0.625q-0.453125 0.421875 -1.765625 0.78125q-1.3125 0.359375 -2.21875 0.359375q-1.734375 0 -2.609375 -0.75q-0.875 -0.75 -0.875 -1.84375l0 -4.109375l-0.671875 0q-0.671875 0 -0.96875 -0.25q-0.28125 -0.265625 -0.28125 -0.6875q0 -0.40625 0.28125 -0.65625q0.296875 -0.265625 0.96875 -0.265625l0.671875 0l0 -1.6875q0 -0.671875 0.265625 -0.953125q0.265625 -0.296875 0.671875 -0.296875q0.421875 0 0.671875 0.296875q0.265625 0.28125 0.265625 0.953125l0 1.6875l3.453125 0q0.671875 0 0.953125 0.265625q0.296875 0.25 0.296875 0.671875q0 0.40625 -0.296875 0.671875q-0.28125 0.25 -0.953125 0.25l-3.453125 0zm10.617462 6.34375l-3.234375 -6.34375q-0.46875 -0.046875 -0.703125 -0.296875q-0.234375 -0.265625 -0.234375 -0.625q0 -0.421875 0.28125 -0.671875q0.296875 -0.265625 0.96875 -0.265625l1.703125 0q0.671875 0 0.953125 0.265625q0.296875 0.25 0.296875 0.671875q0 0.40625 -0.296875 0.671875q-0.28125 0.25 -0.90625 0.25l2.21875 4.296875l2.171875 -4.296875q-0.59375 0 -0.890625 -0.25q-0.28125 -0.265625 -0.28125 -0.6875q0 -0.40625 0.28125 -0.65625q0.296875 -0.265625 0.96875 -0.265625l1.765625 0q0.65625 0 0.9375 0.265625q0.296875 0.25 0.296875 0.671875q0 0.375 -0.25 0.640625q-0.25 0.25 -0.71875 0.28125l-4.28125 8.4375q0.6875 0 0.90625 0.140625q0.4375 0.28125 0.4375 0.796875q0 0.40625 -0.28125 0.671875q-0.28125 0.265625 -0.953125 0.265625l-4.078125 0q-0.671875 0 -0.96875 -0.265625q-0.28125 -0.265625 -0.28125 -0.671875q0 -0.421875 0.28125 -0.6875q0.296875 -0.25 0.96875 -0.25l1.859375 0l1.0625 -2.09375z" fill-rule="nonzero"/><path fill="#406bff" d="m622.95013 468.91864l129.35431 0l0 88.22046l-129.35431 0z" fill-rule="evenodd"/><path stroke="#1f1f1a" stroke-width="1.0" stroke-linejoin="round" stroke-linecap="butt" d="m622.95013 468.91864l129.35431 0l0 88.22046l-129.35431 0z" fill-rule="evenodd"/><path fill="#406bff" d="m618.01575 473.7034l129.35431 0l0 88.22049l-129.35431 0z" fill-rule="evenodd"/><path stroke="#1f1f1a" stroke-width="1.0" stroke-linejoin="round" stroke-linecap="butt" d="m618.01575 473.7034l129.35431 0l0 88.22049l-129.35431 0z" fill-rule="evenodd"/><path fill="#406bff" d="m613.08136 478.4882l129.35431 0l0 88.22049l-129.35431 0z" fill-rule="evenodd"/><path stroke="#1f1f1a" stroke-width="1.0" stroke-linejoin="round" stroke-linecap="butt" d="m613.08136 478.4882l129.35431 0l0 88.22049l-129.35431 0z" fill-rule="evenodd"/><path fill="#000000" fill-opacity="0.0" d="m623.8504 490.60104l109.165344 0l0 50.834625l-109.165344 0z" fill-rule="evenodd"/><path fill="#000000" d="m641.307 509.8023l0 -0.546875l2.1875 0q0.671875 0 0.953125 0.265625q0.296875 0.25 0.296875 0.671875q0 0.40625 -0.296875 0.671875q-0.28125 0.25 -0.953125 0.25l-0.328125 0l0 6.796875q0 0.984375 -0.421875 1.71875q-0.40625 0.734375 -1.265625 1.265625q-0.84375 0.53125 -1.921875 0.53125l-2.109375 0q-0.6875 0 -0.96875 -0.265625q-0.28125 -0.265625 -0.28125 -0.671875q0 -0.421875 0.28125 -0.6875q0.28125 -0.25 0.96875 -0.25l2.046875 0q0.859375 0 1.328125 -0.46875q0.484375 -0.453125 0.484375 -1.171875l0 -0.90625q-0.625 0.390625 -1.265625 0.59375q-0.640625 0.203125 -1.3125 0.203125q-1.90625 0 -3.203125 -1.265625q-1.28125 -1.28125 -1.28125 -3.140625q0 -1.875 1.28125 -3.140625q1.296875 -1.28125 3.203125 -1.28125q0.703125 0 1.34375 0.203125q0.640625 0.203125 1.234375 0.625zm-0.015625 3.578125q0 -1.03125 -0.765625 -1.78125q-0.75 -0.75 -1.8125 -0.75q-1.078125 0 -1.84375 0.75q-0.75 0.75 -0.75 1.78125q0 1.046875 0.75 1.796875q0.765625 0.75 1.84375 0.75q1.0625 0 1.8125 -0.75q0.765625 -0.75 0.765625 -1.796875zm10.836243 4.140625l0 -0.4375q-0.703125 0.375 -1.5625 0.5625q-0.84375 0.1875 -1.53125 0.1875q-1.5 0 -2.4375 -0.796875q-0.9375 -0.796875 -0.9375 -1.765625q0 -1.171875 1.1875 -2.171875q1.203125 -1.015625 3.3125 -1.015625q0.859375 0 1.96875 0.1875l0 -0.453125q0 -0.421875 -0.359375 -0.6875q-0.359375 -0.265625 -1.375 -0.265625q-0.828125 0 -2.15625 0.328125q-0.484375 0.125 -0.765625 0.125q-0.359375 0 -0.625 -0.265625q-0.265625 -0.265625 -0.265625 -0.6875q0 -0.234375 0.09375 -0.40625q0.09375 -0.1875 0.25 -0.28125q0.171875 -0.109375 0.6875 -0.25q0.703125 -0.203125 1.421875 -0.3125q0.71875 -0.109375 1.296875 -0.109375q1.734375 0 2.6875 0.75q0.96875 0.75 0.96875 2.046875l0 3.84375l0.328125 0q0.671875 0 0.953125 0.265625q0.296875 0.265625 0.296875 0.6875q0 0.40625 -0.296875 0.671875q-0.28125 0.25 -0.953125 0.25l-2.1875 0zm0 -3.34375q-1.125 -0.21875 -2.078125 -0.21875q-1.125 0 -1.953125 0.5625q-0.515625 0.34375 -0.515625 0.71875q0 0.265625 0.25 0.421875q0.453125 0.296875 1.25 0.296875q0.671875 0 1.515625 -0.265625q0.859375 -0.265625 1.53125 -0.71875l0 -0.796875zm9.054932 -3.0625l0 3.75q0 0.59375 0.25 0.78125q0.375 0.3125 1.359375 0.3125q1.4375 0 2.640625 -0.609375q0.46875 -0.234375 0.734375 -0.234375q0.359375 0 0.625 0.265625q0.265625 0.265625 0.265625 0.671875q0 0.359375 -0.28125 0.625q-0.453125 0.421875 -1.765625 0.78125q-1.3125 0.359375 -2.21875 0.359375q-1.734375 0 -2.609375 -0.75q-0.875 -0.75 -0.875 -1.84375l0 -4.109375l-0.671875 0q-0.671875 0 -0.96875 -0.25q-0.28125 -0.265625 -0.28125 -0.6875q0 -0.40625 0.28125 -0.65625q0.296875 -0.265625 0.96875 -0.265625l0.671875 0l0 -1.6875q0 -0.671875 0.265625 -0.953125q0.265625 -0.296875 0.671875 -0.296875q0.421875 0 0.671875 0.296875q0.265625 0.28125 0.265625 0.953125l0 1.6875l3.453125 0q0.671875 0 0.953125 0.265625q0.296875 0.25 0.296875 0.671875q0 0.40625 -0.296875 0.671875q-0.28125 0.25 -0.953125 0.25l-3.453125 0zm16.336182 3.21875l-7.65625 0q0.296875 0.734375 1.03125 1.1875q0.75 0.4375 2.015625 0.4375q1.03125 0 2.75 -0.453125q0.71875 -0.1875 0.984375 -0.1875q0.375 0 0.625 0.265625q0.265625 0.265625 0.265625 0.671875q0 0.359375 -0.28125 0.625q-0.359375 0.328125 -1.78125 0.640625q-1.40625 0.296875 -2.703125 0.296875q-2.25 0 -3.59375 -1.265625q-1.34375 -1.265625 -1.34375 -3.109375q0 -1.96875 1.453125 -3.203125q1.453125 -1.234375 3.359375 -1.234375q1.140625 0 2.078125 0.40625q0.953125 0.390625 1.421875 0.859375q0.65625 0.671875 1.09375 1.671875q0.28125 0.6875 0.28125 1.59375l0 0.796875zm-2.0625 -1.875q-0.4375 -0.796875 -1.125 -1.1875q-0.6875 -0.40625 -1.640625 -0.40625q-0.953125 0 -1.65625 0.40625q-0.6875 0.390625 -1.125 1.1875l5.546875 0zm8.586182 1.625l-1.296875 3.4375l-1.75 0l-1.5625 -6.40625q-0.515625 -0.03125 -0.78125 -0.28125q-0.25 -0.265625 -0.25 -0.65625q0 -0.40625 0.28125 -0.65625q0.28125 -0.265625 0.96875 -0.265625l1.734375 0q0.671875 0 0.953125 0.265625q0.296875 0.25 0.296875 0.671875q0 0.40625 -0.328125 0.703125q-0.25 0.21875 -0.96875 0.21875l0.703125 2.96875l1.15625 -3.046875l1.671875 0l1.15625 3.046875l0.734375 -2.96875q-0.6875 0 -0.90625 -0.140625q-0.4375 -0.28125 -0.4375 -0.796875q0 -0.40625 0.28125 -0.65625q0.28125 -0.265625 0.953125 -0.265625l1.765625 0q0.671875 0 0.953125 0.265625q0.296875 0.25 0.296875 0.671875q0 0.375 -0.25 0.640625q-0.25 0.25 -0.75 0.28125l-1.53125 6.40625l-1.71875 0l-1.375 -3.4375zm12.867493 3.4375l0 -0.4375q-0.703125 0.375 -1.5625 0.5625q-0.84375 0.1875 -1.53125 0.1875q-1.5 0 -2.4375 -0.796875q-0.9375 -0.796875 -0.9375 -1.765625q0 -1.171875 1.1875 -2.171875q1.203125 -1.015625 3.3125 -1.015625q0.859375 0 1.96875 0.1875l0 -0.453125q0 -0.421875 -0.359375 -0.6875q-0.359375 -0.265625 -1.375 -0.265625q-0.828125 0 -2.15625 0.328125q-0.484375 0.125 -0.765625 0.125q-0.359375 0 -0.625 -0.265625q-0.265625 -0.265625 -0.265625 -0.6875q0 -0.234375 0.09375 -0.40625q0.09375 -0.1875 0.25 -0.28125q0.171875 -0.109375 0.6875 -0.25q0.703125 -0.203125 1.421875 -0.3125q0.71875 -0.109375 1.296875 -0.109375q1.734375 0 2.6875 0.75q0.96875 0.75 0.96875 2.046875l0 3.84375l0.328125 0q0.671875 0 0.953125 0.265625q0.296875 0.265625 0.296875 0.6875q0 0.40625 -0.296875 0.671875q-0.28125 0.25 -0.953125 0.25l-2.1875 0zm0 -3.34375q-1.125 -0.21875 -2.078125 -0.21875q-1.125 0 -1.953125 0.5625q-0.515625 0.34375 -0.515625 0.71875q0 0.265625 0.25 0.421875q0.453125 0.296875 1.25 0.296875q0.671875 0 1.515625 -0.265625q0.859375 -0.265625 1.53125 -0.71875l0 -0.796875zm8.476807 3.28125l-3.234375 -6.34375q-0.46875 -0.046875 -0.703125 -0.296875q-0.234375 -0.265625 -0.234375 -0.625q0 -0.421875 0.28125 -0.671875q0.296875 -0.265625 0.96875 -0.265625l1.703125 0q0.671875 0 0.953125 0.265625q0.296875 0.25 0.296875 0.671875q0 0.40625 -0.296875 0.671875q-0.28125 0.25 -0.90625 0.25l2.21875 4.296875l2.171875 -4.296875q-0.59375 0 -0.890625 -0.25q-0.28125 -0.265625 -0.28125 -0.6875q0 -0.40625 0.28125 -0.65625q0.296875 -0.265625 0.96875 -0.265625l1.765625 0q0.65625 0 0.9375 0.265625q0.296875 0.25 0.296875 0.671875q0 0.375 -0.25 0.640625q-0.25 0.25 -0.71875 0.28125l-4.28125 8.4375q0.6875 0 0.90625 0.140625q0.4375 0.28125 0.4375 0.796875q0 0.40625 -0.28125 0.671875q-0.28125 0.265625 -0.953125 0.265625l-4.078125 0q-0.671875 0 -0.96875 -0.265625q-0.28125 -0.265625 -0.28125 -0.671875q0 -0.421875 0.28125 -0.6875q0.296875 -0.25 0.96875 -0.25l1.859375 0l1.0625 -2.09375zm16.148682 -4.390625l-7.796875 0l0 -1.703125l7.796875 0l0 1.703125z" fill-rule="nonzero"/><path fill="#000000" d="m639.9164 527.70856l0 1.96875l-2.21875 0l0 -1.96875l2.21875 0zm0.25 3.546875l0 6.390625l2.25 0q0.671875 0 0.953125 0.265625q0.296875 0.265625 0.296875 0.6875q0 0.40625 -0.296875 0.671875q-0.28125 0.25 -0.953125 0.25l-6.359375 0q-0.671875 0 -0.953125 -0.25q-0.28125 -0.265625 -0.28125 -0.6875q0 -0.40625 0.28125 -0.671875q0.28125 -0.265625 0.953125 -0.265625l2.25 0l0 -4.53125l-1.5 0q-0.671875 0 -0.96875 -0.25q-0.28125 -0.265625 -0.28125 -0.6875q0 -0.40625 0.28125 -0.65625q0.296875 -0.265625 0.96875 -0.265625l3.359375 0zm8.383118 0l0 0.625q0.515625 -0.4375 1.125 -0.65625q0.625 -0.21875 1.34375 -0.21875q1.65625 0 2.625 1.03125q0.765625 0.8125 0.765625 2.140625l0 3.46875q0.578125 0 0.859375 0.265625q0.296875 0.265625 0.296875 0.6875q0 0.40625 -0.296875 0.671875q-0.28125 0.25 -0.953125 0.25l-1.6875 0q-0.671875 0 -0.96875 -0.25q-0.28125 -0.265625 -0.28125 -0.6875q0 -0.40625 0.28125 -0.671875q0.28125 -0.265625 0.875 -0.265625l0 -3.515625q0 -0.609375 -0.328125 -0.890625q-0.421875 -0.375 -1.28125 -0.375q-0.65625 0 -1.140625 0.25q-0.484375 0.25 -1.234375 1.0625l0 3.46875q0.71875 0 0.9375 0.140625q0.4375 0.28125 0.4375 0.8125q0 0.40625 -0.28125 0.671875q-0.28125 0.25 -0.96875 0.25l-2.109375 0q-0.6875 0 -0.96875 -0.25q-0.28125 -0.265625 -0.28125 -0.6875q0 -0.515625 0.4375 -0.796875q0.21875 -0.140625 0.9375 -0.140625l0 -4.53125q-0.59375 0 -0.875 -0.265625q-0.28125 -0.265625 -0.28125 -0.671875q0 -0.40625 0.28125 -0.65625q0.28125 -0.265625 0.96875 -0.265625l1.765625 0zm12.633057 1.859375l0 3.75q0 0.59375 0.25 0.78125q0.375 0.3125 1.359375 0.3125q1.4375 0 2.640625 -0.609375q0.46875 -0.234375 0.734375 -0.234375q0.359375 0 0.625 0.265625q0.265625 0.265625 0.265625 0.671875q0 0.359375 -0.28125 0.625q-0.453125 0.421875 -1.765625 0.78125q-1.3125 0.359375 -2.21875 0.359375q-1.734375 0 -2.609375 -0.75q-0.875 -0.75 -0.875 -1.84375l0 -4.109375l-0.671875 0q-0.671875 0 -0.96875 -0.25q-0.28125 -0.265625 -0.28125 -0.6875q0 -0.40625 0.28125 -0.65625q0.296875 -0.265625 0.96875 -0.265625l0.671875 0l0 -1.6875q0 -0.671875 0.265625 -0.953125q0.265625 -0.296875 0.671875 -0.296875q0.421875 0 0.671875 0.296875q0.265625 0.28125 0.265625 0.953125l0 1.6875l3.453125 0q0.671875 0 0.953125 0.265625q0.296875 0.25 0.296875 0.671875q0 0.40625 -0.296875 0.671875q-0.28125 0.25 -0.953125 0.25l-3.453125 0zm16.336182 3.21875l-7.65625 0q0.296875 0.734375 1.03125 1.1875q0.75 0.4375 2.015625 0.4375q1.03125 0 2.75 -0.453125q0.71875 -0.1875 0.984375 -0.1875q0.375 0 0.625 0.265625q0.265625 0.265625 0.265625 0.671875q0 0.359375 -0.28125 0.625q-0.359375 0.328125 -1.78125 0.640625q-1.40625 0.296875 -2.703125 0.296875q-2.25 0 -3.59375 -1.265625q-1.34375 -1.265625 -1.34375 -3.109375q0 -1.96875 1.453125 -3.203125q1.453125 -1.234375 3.359375 -1.234375q1.140625 0 2.078125 0.40625q0.953125 0.390625 1.421875 0.859375q0.65625 0.671875 1.09375 1.671875q0.28125 0.6875 0.28125 1.59375l0 0.796875zm-2.0625 -1.875q-0.4375 -0.796875 -1.125 -1.1875q-0.6875 -0.40625 -1.640625 -0.40625q-0.953125 0 -1.65625 0.40625q-0.6875 0.390625 -1.125 1.1875l5.546875 0zm8.179932 -3.203125l0 1.15625q1.1875 -0.84375 1.859375 -1.125q0.6875 -0.28125 1.265625 -0.28125q0.921875 0 1.78125 0.671875q0.578125 0.453125 0.578125 0.921875q0 0.40625 -0.28125 0.6875q-0.28125 0.28125 -0.671875 0.28125q-0.34375 0 -0.734375 -0.34375q-0.375 -0.359375 -0.671875 -0.359375q-0.390625 0 -1.171875 0.5q-0.78125 0.484375 -1.953125 1.46875l0 2.8125l2.671875 0q0.671875 0 0.953125 0.265625q0.296875 0.265625 0.296875 0.6875q0 0.40625 -0.296875 0.671875q-0.28125 0.25 -0.953125 0.25l-5.640625 0q-0.671875 0 -0.96875 -0.25q-0.28125 -0.265625 -0.28125 -0.6875q0 -0.40625 0.28125 -0.671875q0.296875 -0.265625 0.96875 -0.265625l1.109375 0l0 -4.53125l-0.671875 0q-0.671875 0 -0.96875 -0.25q-0.28125 -0.265625 -0.28125 -0.6875q0 -0.40625 0.28125 -0.65625q0.296875 -0.265625 0.96875 -0.265625l2.53125 0zm9.695618 0l0 0.625q0.515625 -0.4375 1.125 -0.65625q0.625 -0.21875 1.34375 -0.21875q1.65625 0 2.625 1.03125q0.765625 0.8125 0.765625 2.140625l0 3.46875q0.578125 0 0.859375 0.265625q0.296875 0.265625 0.296875 0.6875q0 0.40625 -0.296875 0.671875q-0.28125 0.25 -0.953125 0.25l-1.6875 0q-0.671875 0 -0.96875 -0.25q-0.28125 -0.265625 -0.28125 -0.6875q0 -0.40625 0.28125 -0.671875q0.28125 -0.265625 0.875 -0.265625l0 -3.515625q0 -0.609375 -0.328125 -0.890625q-0.421875 -0.375 -1.28125 -0.375q-0.65625 0 -1.140625 0.25q-0.484375 0.25 -1.234375 1.0625l0 3.46875q0.71875 0 0.9375 0.140625q0.4375 0.28125 0.4375 0.8125q0 0.40625 -0.28125 0.671875q-0.28125 0.25 -0.96875 0.25l-2.109375 0q-0.6875 0 -0.96875 -0.25q-0.28125 -0.265625 -0.28125 -0.6875q0 -0.515625 0.4375 -0.796875q0.21875 -0.140625 0.9375 -0.140625l0 -4.53125q-0.59375 0 -0.875 -0.265625q-0.28125 -0.265625 -0.28125 -0.671875q0 -0.40625 0.28125 -0.65625q0.28125 -0.265625 0.96875 -0.265625l1.765625 0zm14.773682 8.265625l0 -0.4375q-0.703125 0.375 -1.5625 0.5625q-0.84375 0.1875 -1.53125 0.1875q-1.5 0 -2.4375 -0.796875q-0.9375 -0.796875 -0.9375 -1.765625q0 -1.171875 1.1875 -2.171875q1.203125 -1.015625 3.3125 -1.015625q0.859375 0 1.96875 0.1875l0 -0.453125q0 -0.421875 -0.359375 -0.6875q-0.359375 -0.265625 -1.375 -0.265625q-0.828125 0 -2.15625 0.328125q-0.484375 0.125 -0.765625 0.125q-0.359375 0 -0.625 -0.265625q-0.265625 -0.265625 -0.265625 -0.6875q0 -0.234375 0.09375 -0.40625q0.09375 -0.1875 0.25 -0.28125q0.171875 -0.109375 0.6875 -0.25q0.703125 -0.203125 1.421875 -0.3125q0.71875 -0.109375 1.296875 -0.109375q1.734375 0 2.6875 0.75q0.96875 0.75 0.96875 2.046875l0 3.84375l0.328125 0q0.671875 0 0.953125 0.265625q0.296875 0.265625 0.296875 0.6875q0 0.40625 -0.296875 0.671875q-0.28125 0.25 -0.953125 0.25l-2.1875 0zm0 -3.34375q-1.125 -0.21875 -2.078125 -0.21875q-1.125 0 -1.953125 0.5625q-0.515625 0.34375 -0.515625 0.71875q0 0.265625 0.25 0.421875q0.453125 0.296875 1.25 0.296875q0.671875 0 1.515625 -0.265625q0.859375 -0.265625 1.53125 -0.71875l0 -0.796875zm10.445557 -8.46875l0 9.9375l2.234375 0q0.6875 0 0.96875 0.265625q0.28125 0.265625 0.28125 0.6875q0 0.40625 -0.28125 0.671875q-0.28125 0.25 -0.96875 0.25l-6.34375 0q-0.671875 0 -0.96875 -0.25q-0.28125 -0.265625 -0.28125 -0.6875q0 -0.40625 0.28125 -0.671875q0.296875 -0.265625 0.96875 -0.265625l2.25 0l0 -8.078125l-1.515625 0q-0.65625 0 -0.953125 -0.25q-0.296875 -0.265625 -0.296875 -0.6875q0 -0.40625 0.28125 -0.65625q0.296875 -0.265625 0.96875 -0.265625l3.375 0z" fill-rule="nonzero"/><path fill="#ffb533" d="m569.9835 308.35556l0 0c0 -7.2566833 5.8826904 -13.139374 13.139343 -13.139374l107.170105 0c3.4847412 0 6.826782 1.3843079 9.290894 3.8484192c2.4641113 2.4641113 3.8484497 5.806183 3.8484497 9.290955l0 52.55591c0 7.256653 -5.8826904 13.139374 -13.139343 13.139374l-107.170105 0c-7.256653 0 -13.139343 -5.882721 -13.139343 -13.139374z" fill-rule="evenodd"/><path stroke="#1f1f1a" stroke-width="1.0" stroke-linejoin="round" stroke-linecap="butt" d="m569.9835 308.35556l0 0c0 -7.2566833 5.8826904 -13.139374 13.139343 -13.139374l107.170105 0c3.4847412 0 6.826782 1.3843079 9.290894 3.8484192c2.4641113 2.4641113 3.8484497 5.806183 3.8484497 9.290955l0 52.55591c0 7.256653 -5.8826904 13.139374 -13.139343 13.139374l-107.170105 0c-7.256653 0 -13.139343 -5.882721 -13.139343 -13.139374z" fill-rule="evenodd"/><path fill="#ffb533" d="m556.8609 321.34332l0 0c0 -7.256653 5.8826904 -13.139374 13.139343 -13.139374l107.170105 0c3.4847412 0 6.8268433 1.3843384 9.290955 3.8484497c2.4641113 2.4641113 3.8483887 5.8061523 3.8483887 9.290924l0 52.55591c0 7.2566833 -5.8826904 13.139374 -13.139343 13.139374l-107.170105 0c-7.256653 0 -13.139343 -5.8826904 -13.139343 -13.139374z" fill-rule="evenodd"/><path stroke="#1f1f1a" stroke-width="1.0" stroke-linejoin="round" stroke-linecap="butt" d="m556.8609 321.34332l0 0c0 -7.256653 5.8826904 -13.139374 13.139343 -13.139374l107.170105 0c3.4847412 0 6.8268433 1.3843384 9.290955 3.8484497c2.4641113 2.4641113 3.8483887 5.8061523 3.8483887 9.290924l0 52.55591c0 7.2566833 -5.8826904 13.139374 -13.139343 13.139374l-107.170105 0c-7.256653 0 -13.139343 -5.8826904 -13.139343 -13.139374z" fill-rule="evenodd"/><path fill="#000000" fill-opacity="0.0" d="m568.0735 323.9475l109.165344 0l0 38.141724l-109.165344 0z" fill-rule="evenodd"/><path fill="#000000" d="m579.4016 341.21375l0 0.453125q0.390625 -0.390625 0.703125 -0.53125q0.328125 -0.140625 0.734375 -0.140625q0.359375 0 0.703125 0.171875q0.34375 0.171875 0.671875 0.515625q0.40625 -0.34375 0.828125 -0.515625q0.4375 -0.171875 0.875 -0.171875q0.890625 0 1.453125 0.484375q0.734375 0.625 0.734375 1.640625l0 3.578125q0.5 0 0.734375 0.234375q0.25 0.21875 0.25 0.578125q0 0.34375 -0.25 0.578125q-0.234375 0.21875 -0.8125 0.21875l-1.53125 0l0 -5.0625q0 -0.359375 -0.140625 -0.5q-0.125 -0.140625 -0.390625 -0.140625q-0.265625 0 -0.5 0.140625q-0.28125 0.1875 -0.703125 0.734375l0 3.21875q0.5 0 0.734375 0.234375q0.25 0.21875 0.25 0.578125q0 0.34375 -0.25 0.578125q-0.234375 0.21875 -0.8125 0.21875l-1.515625 0l0 -5.0625q0 -0.359375 -0.140625 -0.5q-0.140625 -0.140625 -0.40625 -0.140625q-0.28125 0 -0.5625 0.171875q-0.265625 0.171875 -0.65625 0.703125l0 3.21875q0.5 0 0.75 0.234375q0.25 0.21875 0.25 0.578125q0 0.34375 -0.25 0.578125q-0.25 0.21875 -0.828125 0.21875l-1.4375 0q-0.578125 0 -0.828125 -0.21875q-0.25 -0.234375 -0.25 -0.59375q0 -0.34375 0.25 -0.5625q0.234375 -0.234375 0.75 -0.234375l0 -3.890625q-0.515625 0 -0.75 -0.21875q-0.25 -0.234375 -0.25 -0.578125q0 -0.359375 0.25 -0.578125q0.25 -0.21875 0.828125 -0.21875l1.515625 0zm13.5234375 7.09375l0 -0.375q-0.609375 0.3125 -1.34375 0.46875q-0.71875 0.171875 -1.3125 0.171875q-1.28125 0 -2.09375 -0.6875q-0.796875 -0.6875 -0.796875 -1.515625q0 -1.0 1.015625 -1.859375q1.03125 -0.875 2.84375 -0.875q0.734375 0 1.6875 0.15625l0 -0.375q0 -0.359375 -0.3125 -0.578125q-0.3125 -0.234375 -1.171875 -0.234375q-0.71875 0 -1.84375 0.28125q-0.421875 0.09375 -0.65625 0.09375q-0.328125 0 -0.546875 -0.21875q-0.21875 -0.234375 -0.21875 -0.59375q0 -0.203125 0.078125 -0.34375q0.078125 -0.15625 0.21875 -0.25q0.140625 -0.09375 0.578125 -0.21875q0.59375 -0.15625 1.203125 -0.25q0.625 -0.109375 1.125 -0.109375q1.5 0 2.3125 0.65625q0.828125 0.640625 0.828125 1.75l0 3.296875l0.28125 0q0.578125 0 0.8125 0.234375q0.25 0.21875 0.25 0.578125q0 0.34375 -0.25 0.578125q-0.234375 0.21875 -0.8125 0.21875l-1.875 0zm0 -2.875q-0.96875 -0.1875 -1.78125 -0.1875q-0.96875 0 -1.671875 0.484375q-0.4375 0.296875 -0.4375 0.609375q0 0.234375 0.203125 0.375q0.390625 0.25 1.078125 0.25q0.578125 0 1.296875 -0.21875q0.734375 -0.234375 1.3125 -0.625l0 -0.6875zm7.7578125 -2.625l0 3.21875q0 0.515625 0.21875 0.671875q0.328125 0.265625 1.171875 0.265625q1.21875 0 2.265625 -0.53125q0.390625 -0.203125 0.625 -0.203125q0.3125 0 0.53125 0.234375q0.234375 0.234375 0.234375 0.578125q0 0.3125 -0.25 0.53125q-0.375 0.375 -1.515625 0.6875q-1.125 0.3125 -1.890625 0.3125q-1.5 0 -2.25 -0.640625q-0.734375 -0.65625 -0.734375 -1.59375l0 -3.53125l-0.578125 0q-0.578125 0 -0.828125 -0.21875q-0.25 -0.21875 -0.25 -0.578125q0 -0.359375 0.25 -0.578125q0.25 -0.21875 0.828125 -0.21875l0.578125 0l0 -1.453125q0 -0.578125 0.21875 -0.8125q0.21875 -0.25 0.578125 -0.25q0.359375 0 0.578125 0.25q0.21875 0.234375 0.21875 0.8125l0 1.453125l2.96875 0q0.578125 0 0.8125 0.21875q0.25 0.21875 0.25 0.578125q0 0.359375 -0.25 0.578125q-0.234375 0.21875 -0.8125 0.21875l-2.96875 0zm12.4921875 -1.3125q0.296875 -0.265625 0.59375 -0.265625q0.34375 0 0.5625 0.25q0.234375 0.234375 0.234375 0.8125l0 1.03125q0 0.578125 -0.234375 0.828125q-0.21875 0.234375 -0.578125 0.234375q-0.328125 0 -0.546875 -0.1875q-0.171875 -0.140625 -0.265625 -0.578125q-0.09375 -0.4375 -0.453125 -0.640625q-0.625 -0.375 -1.609375 -0.375q-1.140625 0 -1.828125 0.671875q-0.671875 0.65625 -0.671875 1.671875q0 0.9375 0.65625 1.484375q0.65625 0.53125 2.171875 0.53125q1.0 0 1.640625 -0.203125q0.375 -0.125 0.703125 -0.421875q0.34375 -0.296875 0.609375 -0.296875q0.328125 0 0.5625 0.25q0.25 0.234375 0.25 0.5625q0 0.53125 -0.734375 1.0q-1.078125 0.71875 -3.15625 0.71875q-1.859375 0 -2.90625 -0.78125q-1.40625 -1.03125 -1.40625 -2.84375q0 -1.703125 1.140625 -2.828125q1.140625 -1.125 2.984375 -1.125q0.65625 0 1.21875 0.125q0.578125 0.125 1.0625 0.375zm5.4609375 -3.328125l0 3.421875q0.5 -0.296875 1.0 -0.4375q0.515625 -0.15625 1.046875 -0.15625q0.828125 0 1.46875 0.28125q0.65625 0.28125 1.078125 0.890625q0.421875 0.609375 0.421875 1.53125l0 3.0q0.609375 0 0.796875 0.125q0.375 0.234375 0.375 0.6875q0 0.34375 -0.25 0.578125q-0.234375 0.21875 -0.8125 0.21875l-1.828125 0q-0.5625 0 -0.8125 -0.21875q-0.25 -0.234375 -0.25 -0.59375q0 -0.4375 0.375 -0.671875q0.203125 -0.125 0.796875 -0.125l0 -2.890625q0 -0.625 -0.28125 -0.875q-0.359375 -0.328125 -1.078125 -0.328125q-0.53125 0 -0.953125 0.203125q-0.40625 0.203125 -1.09375 0.890625l0 3.0q0.609375 0 0.796875 0.125q0.375 0.234375 0.375 0.6875q0 0.34375 -0.25 0.578125q-0.234375 0.21875 -0.8125 0.21875l-1.828125 0q-0.578125 0 -0.828125 -0.21875q-0.234375 -0.234375 -0.234375 -0.59375q0 -0.4375 0.375 -0.671875q0.1875 -0.125 0.796875 -0.125l0 -6.921875l-0.265625 0q-0.578125 0 -0.828125 -0.21875q-0.25 -0.234375 -0.25 -0.59375q0 -0.34375 0.25 -0.5625q0.25 -0.234375 0.828125 -0.234375l1.875 0zm15.2734375 7.40625l-6.578125 0q0.25 0.625 0.890625 1.015625q0.640625 0.375 1.71875 0.375q0.890625 0 2.375 -0.390625q0.609375 -0.15625 0.84375 -0.15625q0.3125 0 0.53125 0.234375q0.21875 0.21875 0.21875 0.5625q0 0.3125 -0.234375 0.53125q-0.3125 0.296875 -1.53125 0.5625q-1.203125 0.265625 -2.3125 0.265625q-1.921875 0 -3.078125 -1.09375q-1.15625 -1.09375 -1.15625 -2.671875q0 -1.6875 1.25 -2.75q1.25 -1.0625 2.875 -1.0625q0.96875 0 1.78125 0.34375q0.828125 0.34375 1.21875 0.75q0.5625 0.578125 0.9375 1.421875q0.25 0.59375 0.25 1.375l0 0.6875zm-1.78125 -1.609375q-0.359375 -0.6875 -0.953125 -1.015625q-0.59375 -0.34375 -1.421875 -0.34375q-0.8125 0 -1.40625 0.34375q-0.59375 0.328125 -0.96875 1.015625l4.75 0zm7.0234375 -2.75l0 1.0q1.015625 -0.734375 1.59375 -0.96875q0.578125 -0.25 1.09375 -0.25q0.78125 0 1.515625 0.578125q0.5 0.390625 0.5 0.796875q0 0.34375 -0.25 0.59375q-0.234375 0.234375 -0.5625 0.234375q-0.296875 0 -0.625 -0.296875q-0.328125 -0.296875 -0.59375 -0.296875q-0.328125 0 -1.0 0.421875q-0.671875 0.421875 -1.671875 1.265625l0 2.40625l2.28125 0q0.578125 0 0.828125 0.234375q0.25 0.21875 0.25 0.578125q0 0.34375 -0.25 0.578125q-0.25 0.21875 -0.828125 0.21875l-4.828125 0q-0.578125 0 -0.828125 -0.21875q-0.25 -0.234375 -0.25 -0.59375q0 -0.34375 0.25 -0.5625q0.25 -0.234375 0.828125 -0.234375l0.953125 0l0 -3.890625l-0.578125 0q-0.578125 0 -0.828125 -0.21875q-0.25 -0.21875 -0.25 -0.578125q0 -0.359375 0.25 -0.578125q0.25 -0.21875 0.828125 -0.21875l2.171875 0zm21.5 4.515625l-3.890625 0l-0.390625 0.96875l0.390625 0q0.578125 0 0.8125 0.234375q0.25 0.21875 0.25 0.578125q0 0.34375 -0.25 0.578125q-0.234375 0.21875 -0.8125 0.21875l-2.15625 0q-0.578125 0 -0.828125 -0.21875q-0.25 -0.234375 -0.25 -0.59375q0 -0.359375 0.265625 -0.578125q0.25 -0.234375 0.84375 -0.21875l2.515625 -6.265625l-1.046875 0q-0.578125 0 -0.828125 -0.21875q-0.234375 -0.21875 -0.234375 -0.578125q0 -0.359375 0.234375 -0.578125q0.25 -0.234375 0.828125 -0.234375l3.46875 0.015625l3.1875 7.859375q0.5625 0 0.734375 0.125q0.359375 0.265625 0.359375 0.6875q0 0.34375 -0.25 0.578125q-0.234375 0.21875 -0.8125 0.21875l-2.15625 0q-0.578125 0 -0.828125 -0.21875q-0.234375 -0.234375 -0.234375 -0.59375q0 -0.34375 0.234375 -0.5625q0.25 -0.234375 0.828125 -0.234375l0.390625 0l-0.375 -0.96875zm-0.671875 -1.609375l-1.28125 -3.171875l-1.296875 3.171875l2.578125 0z" fill-rule="nonzero"/><path fill="#ffb533" d="m745.9835 308.35556l0 0c0 -7.2566833 5.8826904 -13.139374 13.139343 -13.139374l107.170105 0c3.4847412 0 6.826782 1.3843079 9.290894 3.8484192c2.4641113 2.4641113 3.8484497 5.806183 3.8484497 9.290955l0 52.55591c0 7.256653 -5.8826904 13.139374 -13.139343 13.139374l-107.170105 0c-7.256653 0 -13.139343 -5.882721 -13.139343 -13.139374z" fill-rule="evenodd"/><path stroke="#1f1f1a" stroke-width="1.0" stroke-linejoin="round" stroke-linecap="butt" d="m745.9835 308.35556l0 0c0 -7.2566833 5.8826904 -13.139374 13.139343 -13.139374l107.170105 0c3.4847412 0 6.826782 1.3843079 9.290894 3.8484192c2.4641113 2.4641113 3.8484497 5.806183 3.8484497 9.290955l0 52.55591c0 7.256653 -5.8826904 13.139374 -13.139343 13.139374l-107.170105 0c-7.256653 0 -13.139343 -5.882721 -13.139343 -13.139374z" fill-rule="evenodd"/><path fill="#ffb533" d="m732.8609 321.34332l0 0c0 -7.256653 5.8826904 -13.139374 13.139343 -13.139374l107.170105 0c3.4847412 0 6.8268433 1.3843384 9.290955 3.8484497c2.4641113 2.4641113 3.8483887 5.8061523 3.8483887 9.290924l0 52.55591c0 7.2566833 -5.8826904 13.139374 -13.139343 13.139374l-107.170105 0c-7.256653 0 -13.139343 -5.8826904 -13.139343 -13.139374z" fill-rule="evenodd"/><path stroke="#1f1f1a" stroke-width="1.0" stroke-linejoin="round" stroke-linecap="butt" d="m732.8609 321.34332l0 0c0 -7.256653 5.8826904 -13.139374 13.139343 -13.139374l107.170105 0c3.4847412 0 6.8268433 1.3843384 9.290955 3.8484497c2.4641113 2.4641113 3.8483887 5.8061523 3.8483887 9.290924l0 52.55591c0 7.2566833 -5.8826904 13.139374 -13.139343 13.139374l-107.170105 0c-7.256653 0 -13.139343 -5.8826904 -13.139343 -13.139374z" fill-rule="evenodd"/><path fill="#000000" fill-opacity="0.0" d="m744.0735 323.9475l109.165344 0l0 38.141724l-109.165344 0z" fill-rule="evenodd"/><path fill="#000000" d="m755.4016 341.21375l0 0.453125q0.390625 -0.390625 0.703125 -0.53125q0.328125 -0.140625 0.734375 -0.140625q0.359375 0 0.703125 0.171875q0.34375 0.171875 0.671875 0.515625q0.40625 -0.34375 0.828125 -0.515625q0.4375 -0.171875 0.875 -0.171875q0.890625 0 1.453125 0.484375q0.734375 0.625 0.734375 1.640625l0 3.578125q0.5 0 0.734375 0.234375q0.25 0.21875 0.25 0.578125q0 0.34375 -0.25 0.578125q-0.234375 0.21875 -0.8125 0.21875l-1.53125 0l0 -5.0625q0 -0.359375 -0.140625 -0.5q-0.125 -0.140625 -0.390625 -0.140625q-0.265625 0 -0.5 0.140625q-0.28125 0.1875 -0.703125 0.734375l0 3.21875q0.5 0 0.734375 0.234375q0.25 0.21875 0.25 0.578125q0 0.34375 -0.25 0.578125q-0.234375 0.21875 -0.8125 0.21875l-1.515625 0l0 -5.0625q0 -0.359375 -0.140625 -0.5q-0.140625 -0.140625 -0.40625 -0.140625q-0.28125 0 -0.5625 0.171875q-0.265625 0.171875 -0.65625 0.703125l0 3.21875q0.5 0 0.75 0.234375q0.25 0.21875 0.25 0.578125q0 0.34375 -0.25 0.578125q-0.25 0.21875 -0.828125 0.21875l-1.4375 0q-0.578125 0 -0.828125 -0.21875q-0.25 -0.234375 -0.25 -0.59375q0 -0.34375 0.25 -0.5625q0.234375 -0.234375 0.75 -0.234375l0 -3.890625q-0.515625 0 -0.75 -0.21875q-0.25 -0.234375 -0.25 -0.578125q0 -0.359375 0.25 -0.578125q0.25 -0.21875 0.828125 -0.21875l1.515625 0zm13.5234375 7.09375l0 -0.375q-0.609375 0.3125 -1.34375 0.46875q-0.71875 0.171875 -1.3125 0.171875q-1.28125 0 -2.09375 -0.6875q-0.796875 -0.6875 -0.796875 -1.515625q0 -1.0 1.015625 -1.859375q1.03125 -0.875 2.84375 -0.875q0.734375 0 1.6875 0.15625l0 -0.375q0 -0.359375 -0.3125 -0.578125q-0.3125 -0.234375 -1.171875 -0.234375q-0.71875 0 -1.84375 0.28125q-0.421875 0.09375 -0.65625 0.09375q-0.328125 0 -0.546875 -0.21875q-0.21875 -0.234375 -0.21875 -0.59375q0 -0.203125 0.078125 -0.34375q0.078125 -0.15625 0.21875 -0.25q0.140625 -0.09375 0.578125 -0.21875q0.59375 -0.15625 1.203125 -0.25q0.625 -0.109375 1.125 -0.109375q1.5 0 2.3125 0.65625q0.828125 0.640625 0.828125 1.75l0 3.296875l0.28125 0q0.578125 0 0.8125 0.234375q0.25 0.21875 0.25 0.578125q0 0.34375 -0.25 0.578125q-0.234375 0.21875 -0.8125 0.21875l-1.875 0zm0 -2.875q-0.96875 -0.1875 -1.78125 -0.1875q-0.96875 0 -1.671875 0.484375q-0.4375 0.296875 -0.4375 0.609375q0 0.234375 0.203125 0.375q0.390625 0.25 1.078125 0.25q0.578125 0 1.296875 -0.21875q0.734375 -0.234375 1.3125 -0.625l0 -0.6875zm7.7578125 -2.625l0 3.21875q0 0.515625 0.21875 0.671875q0.328125 0.265625 1.171875 0.265625q1.21875 0 2.265625 -0.53125q0.390625 -0.203125 0.625 -0.203125q0.3125 0 0.53125 0.234375q0.234375 0.234375 0.234375 0.578125q0 0.3125 -0.25 0.53125q-0.375 0.375 -1.515625 0.6875q-1.125 0.3125 -1.890625 0.3125q-1.5 0 -2.25 -0.640625q-0.734375 -0.65625 -0.734375 -1.59375l0 -3.53125l-0.578125 0q-0.578125 0 -0.828125 -0.21875q-0.25 -0.21875 -0.25 -0.578125q0 -0.359375 0.25 -0.578125q0.25 -0.21875 0.828125 -0.21875l0.578125 0l0 -1.453125q0 -0.578125 0.21875 -0.8125q0.21875 -0.25 0.578125 -0.25q0.359375 0 0.578125 0.25q0.21875 0.234375 0.21875 0.8125l0 1.453125l2.96875 0q0.578125 0 0.8125 0.21875q0.25 0.21875 0.25 0.578125q0 0.359375 -0.25 0.578125q-0.234375 0.21875 -0.8125 0.21875l-2.96875 0zm12.4921875 -1.3125q0.296875 -0.265625 0.59375 -0.265625q0.34375 0 0.5625 0.25q0.234375 0.234375 0.234375 0.8125l0 1.03125q0 0.578125 -0.234375 0.828125q-0.21875 0.234375 -0.578125 0.234375q-0.328125 0 -0.546875 -0.1875q-0.171875 -0.140625 -0.265625 -0.578125q-0.09375 -0.4375 -0.453125 -0.640625q-0.625 -0.375 -1.609375 -0.375q-1.140625 0 -1.828125 0.671875q-0.671875 0.65625 -0.671875 1.671875q0 0.9375 0.65625 1.484375q0.65625 0.53125 2.171875 0.53125q1.0 0 1.640625 -0.203125q0.375 -0.125 0.703125 -0.421875q0.34375 -0.296875 0.609375 -0.296875q0.328125 0 0.5625 0.25q0.25 0.234375 0.25 0.5625q0 0.53125 -0.734375 1.0q-1.078125 0.71875 -3.15625 0.71875q-1.859375 0 -2.90625 -0.78125q-1.40625 -1.03125 -1.40625 -2.84375q0 -1.703125 1.140625 -2.828125q1.140625 -1.125 2.984375 -1.125q0.65625 0 1.21875 0.125q0.578125 0.125 1.0625 0.375zm5.4609375 -3.328125l0 3.421875q0.5 -0.296875 1.0 -0.4375q0.515625 -0.15625 1.046875 -0.15625q0.828125 0 1.46875 0.28125q0.65625 0.28125 1.078125 0.890625q0.421875 0.609375 0.421875 1.53125l0 3.0q0.609375 0 0.796875 0.125q0.375 0.234375 0.375 0.6875q0 0.34375 -0.25 0.578125q-0.234375 0.21875 -0.8125 0.21875l-1.828125 0q-0.5625 0 -0.8125 -0.21875q-0.25 -0.234375 -0.25 -0.59375q0 -0.4375 0.375 -0.671875q0.203125 -0.125 0.796875 -0.125l0 -2.890625q0 -0.625 -0.28125 -0.875q-0.359375 -0.328125 -1.078125 -0.328125q-0.53125 0 -0.953125 0.203125q-0.40625 0.203125 -1.09375 0.890625l0 3.0q0.609375 0 0.796875 0.125q0.375 0.234375 0.375 0.6875q0 0.34375 -0.25 0.578125q-0.234375 0.21875 -0.8125 0.21875l-1.828125 0q-0.578125 0 -0.828125 -0.21875q-0.234375 -0.234375 -0.234375 -0.59375q0 -0.4375 0.375 -0.671875q0.1875 -0.125 0.796875 -0.125l0 -6.921875l-0.265625 0q-0.578125 0 -0.828125 -0.21875q-0.25 -0.234375 -0.25 -0.59375q0 -0.34375 0.25 -0.5625q0.25 -0.234375 0.828125 -0.234375l1.875 0zm15.2734375 7.40625l-6.578125 0q0.25 0.625 0.890625 1.015625q0.640625 0.375 1.71875 0.375q0.890625 0 2.375 -0.390625q0.609375 -0.15625 0.84375 -0.15625q0.3125 0 0.53125 0.234375q0.21875 0.21875 0.21875 0.5625q0 0.3125 -0.234375 0.53125q-0.3125 0.296875 -1.53125 0.5625q-1.203125 0.265625 -2.3125 0.265625q-1.921875 0 -3.078125 -1.09375q-1.15625 -1.09375 -1.15625 -2.671875q0 -1.6875 1.25 -2.75q1.25 -1.0625 2.875 -1.0625q0.96875 0 1.78125 0.34375q0.828125 0.34375 1.21875 0.75q0.5625 0.578125 0.9375 1.421875q0.25 0.59375 0.25 1.375l0 0.6875zm-1.78125 -1.609375q-0.359375 -0.6875 -0.953125 -1.015625q-0.59375 -0.34375 -1.421875 -0.34375q-0.8125 0 -1.40625 0.34375q-0.59375 0.328125 -0.96875 1.015625l4.75 0zm7.0234375 -2.75l0 1.0q1.015625 -0.734375 1.59375 -0.96875q0.578125 -0.25 1.09375 -0.25q0.78125 0 1.515625 0.578125q0.5 0.390625 0.5 0.796875q0 0.34375 -0.25 0.59375q-0.234375 0.234375 -0.5625 0.234375q-0.296875 0 -0.625 -0.296875q-0.328125 -0.296875 -0.59375 -0.296875q-0.328125 0 -1.0 0.421875q-0.671875 0.421875 -1.671875 1.265625l0 2.40625l2.28125 0q0.578125 0 0.828125 0.234375q0.25 0.21875 0.25 0.578125q0 0.34375 -0.25 0.578125q-0.25 0.21875 -0.828125 0.21875l-4.828125 0q-0.578125 0 -0.828125 -0.21875q-0.25 -0.234375 -0.25 -0.59375q0 -0.34375 0.25 -0.5625q0.25 -0.234375 0.828125 -0.234375l0.953125 0l0 -3.890625l-0.578125 0q-0.578125 0 -0.828125 -0.21875q-0.25 -0.21875 -0.25 -0.578125q0 -0.359375 0.25 -0.578125q0.25 -0.21875 0.828125 -0.21875l2.171875 0zm16.265625 5.484375l0 -6.265625l-0.25 0q-0.578125 0 -0.828125 -0.21875q-0.234375 -0.21875 -0.234375 -0.578125q0 -0.359375 0.234375 -0.578125q0.25 -0.234375 0.828125 -0.234375l4.015625 0q1.4375 0 2.3125 0.8125q0.875 0.796875 0.875 1.890625q0 0.53125 -0.203125 1.0q-0.203125 0.453125 -0.609375 0.84375q0.75 0.453125 1.125 1.0625q0.390625 0.59375 0.390625 1.359375q0 0.609375 -0.28125 1.140625q-0.203125 0.390625 -0.5 0.625q-0.390625 0.328125 -0.96875 0.546875q-0.578125 0.203125 -1.453125 0.203125l-4.703125 0q-0.578125 0 -0.828125 -0.21875q-0.234375 -0.234375 -0.234375 -0.59375q0 -0.34375 0.25 -0.5625q0.25 -0.234375 0.8125 -0.234375l0.25 0zm1.609375 -3.9375l1.75 0q0.953125 0 1.578125 -0.46875q0.421875 -0.328125 0.421875 -0.796875q0 -0.421875 -0.40625 -0.734375q-0.390625 -0.328125 -1.265625 -0.328125l-2.078125 0l0 2.328125zm0 3.9375l2.765625 0q0.96875 0 1.375 -0.28125q0.296875 -0.21875 0.296875 -0.625q0 -0.484375 -0.609375 -0.953125q-0.59375 -0.46875 -1.71875 -0.46875l-2.109375 0l0 2.328125z" fill-rule="nonzero"/><path fill="#000000" fill-opacity="0.0" d="m792.52234 184.35695l136.06299 0l0 35.149612l-136.06299 0z" fill-rule="evenodd"/><path fill="#000000" d="m811.6921 208.16757l0 3.109375l-2.1875 0q-0.671875 0 -0.96875 -0.25q-0.28125 -0.265625 -0.28125 -0.6875q0 -0.40625 0.296875 -0.671875q0.296875 -0.265625 0.953125 -0.265625l0.328125 0l0 -8.078125l-0.328125 0q-0.671875 0 -0.96875 -0.25q-0.28125 -0.265625 -0.28125 -0.6875q0 -0.40625 0.28125 -0.65625q0.296875 -0.265625 0.96875 -0.265625l2.1875 0l0 6.296875l1.453125 -1.1875q-0.21875 -0.390625 -0.21875 -0.625q0 -0.421875 0.28125 -0.671875q0.28125 -0.265625 0.953125 -0.265625l2.125 0q0.6875 0 0.96875 0.265625q0.28125 0.25 0.28125 0.671875q0 0.40625 -0.28125 0.671875q-0.28125 0.25 -0.96875 0.25l-0.515625 0l-2.265625 1.84375l3.046875 2.6875l0.546875 0q0.671875 0 0.953125 0.265625q0.296875 0.265625 0.296875 0.6875q0 0.40625 -0.296875 0.671875q-0.28125 0.25 -0.953125 0.25l-2.140625 0q-0.671875 0 -0.96875 -0.25q-0.28125 -0.265625 -0.28125 -0.6875q0 -0.359375 0.3125 -0.703125l-1.984375 -1.75l-0.34375 0.28125zm16.695557 -5.15625l0 6.390625q0.59375 0 0.875 0.265625q0.28125 0.265625 0.28125 0.6875q0 0.40625 -0.296875 0.671875q-0.28125 0.25 -0.953125 0.25l-1.765625 0l0 -0.421875q-0.8125 0.359375 -1.546875 0.53125q-0.71875 0.1875 -1.375 0.1875q-0.921875 0 -1.59375 -0.375q-0.671875 -0.390625 -1.0625 -1.078125q-0.28125 -0.5 -0.28125 -1.234375l0 -4.015625l-0.328125 0q-0.671875 0 -0.96875 -0.25q-0.28125 -0.265625 -0.28125 -0.6875q0 -0.40625 0.28125 -0.65625q0.296875 -0.265625 0.96875 -0.265625l2.1875 0l0 5.546875q0 0.59375 0.28125 0.875q0.296875 0.28125 0.890625 0.28125q0.5625 0 1.203125 -0.21875q0.65625 -0.234375 1.625 -0.8125l0 -3.8125l-0.6875 0q-0.671875 0 -0.953125 -0.25q-0.28125 -0.265625 -0.28125 -0.6875q0 -0.40625 0.28125 -0.65625q0.28125 -0.265625 0.953125 -0.265625l2.546875 0zm4.8831177 -3.546875l0 4.1875q0.671875 -0.453125 1.375 -0.671875q0.71875 -0.21875 1.4375 -0.21875q1.9375 0 3.28125 1.34375q1.34375 1.328125 1.34375 3.234375q0 1.8125 -1.28125 3.03125q-1.28125 1.203125 -3.390625 1.203125q-0.734375 0 -1.4375 -0.1875q-0.6875 -0.1875 -1.328125 -0.5625l0 0.453125l-2.1875 0q-0.6875 0 -0.96875 -0.25q-0.28125 -0.265625 -0.28125 -0.6875q0 -0.40625 0.28125 -0.671875q0.296875 -0.265625 0.96875 -0.265625l0.3125 0l0 -8.078125l-0.3125 0q-0.6875 0 -0.96875 -0.25q-0.28125 -0.265625 -0.28125 -0.6875q0 -0.40625 0.28125 -0.65625q0.28125 -0.265625 0.96875 -0.265625l2.1875 0zm5.578125 7.921875q0 -1.15625 -0.8125 -1.953125q-0.8125 -0.8125 -1.984375 -0.8125q-1.171875 0 -1.984375 0.8125q-0.796875 0.796875 -0.796875 1.921875q0 1.03125 0.71875 1.703125q0.734375 0.65625 2.0625 0.65625q1.328125 0 2.0625 -0.65625q0.734375 -0.671875 0.734375 -1.671875zm12.648682 0.703125l-7.65625 0q0.296875 0.734375 1.03125 1.1875q0.75 0.4375 2.015625 0.4375q1.03125 0 2.75 -0.453125q0.71875 -0.1875 0.984375 -0.1875q0.375 0 0.625 0.265625q0.265625 0.265625 0.265625 0.671875q0 0.359375 -0.28125 0.625q-0.359375 0.328125 -1.78125 0.640625q-1.40625 0.296875 -2.703125 0.296875q-2.25 0 -3.59375 -1.265625q-1.34375 -1.265625 -1.34375 -3.109375q0 -1.96875 1.453125 -3.203125q1.453125 -1.234375 3.359375 -1.234375q1.140625 0 2.078125 0.40625q0.953125 0.390625 1.421875 0.859375q0.65625 0.671875 1.09375 1.671875q0.28125 0.6875 0.28125 1.59375l0 0.796875zm-2.0625 -1.875q-0.4375 -0.796875 -1.125 -1.1875q-0.6875 -0.40625 -1.640625 -0.40625q-0.953125 0 -1.65625 0.40625q-0.6875 0.390625 -1.125 1.1875l5.546875 0zm8.179932 -3.203125l0 1.15625q1.1875 -0.84375 1.859375 -1.125q0.6875 -0.28125 1.265625 -0.28125q0.921875 0 1.78125 0.671875q0.578125 0.453125 0.578125 0.921875q0 0.40625 -0.28125 0.6875q-0.28125 0.28125 -0.671875 0.28125q-0.34375 0 -0.734375 -0.34375q-0.375 -0.359375 -0.671875 -0.359375q-0.390625 0 -1.171875 0.5q-0.78125 0.484375 -1.953125 1.46875l0 2.8125l2.671875 0q0.671875 0 0.953125 0.265625q0.296875 0.265625 0.296875 0.6875q0 0.40625 -0.296875 0.671875q-0.28125 0.25 -0.953125 0.25l-5.640625 0q-0.671875 0 -0.96875 -0.25q-0.28125 -0.265625 -0.28125 -0.6875q0 -0.40625 0.28125 -0.671875q0.296875 -0.265625 0.96875 -0.265625l1.109375 0l0 -4.53125l-0.671875 0q-0.671875 0 -0.96875 -0.25q-0.28125 -0.265625 -0.28125 -0.6875q0 -0.40625 0.28125 -0.65625q0.296875 -0.265625 0.96875 -0.265625l2.53125 0zm9.695557 0l0 0.625q0.515625 -0.4375 1.125 -0.65625q0.625 -0.21875 1.34375 -0.21875q1.65625 0 2.625 1.03125q0.765625 0.8125 0.765625 2.140625l0 3.46875q0.578125 0 0.859375 0.265625q0.296875 0.265625 0.296875 0.6875q0 0.40625 -0.296875 0.671875q-0.28125 0.25 -0.953125 0.25l-1.6875 0q-0.671875 0 -0.96875 -0.25q-0.28125 -0.265625 -0.28125 -0.6875q0 -0.40625 0.28125 -0.671875q0.28125 -0.265625 0.875 -0.265625l0 -3.515625q0 -0.609375 -0.328125 -0.890625q-0.421875 -0.375 -1.28125 -0.375q-0.65625 0 -1.140625 0.25q-0.484375 0.25 -1.234375 1.0625l0 3.46875q0.71875 0 0.9375 0.140625q0.4375 0.28125 0.4375 0.8125q0 0.40625 -0.28125 0.671875q-0.28125 0.25 -0.96875 0.25l-2.109375 0q-0.6875 0 -0.96875 -0.25q-0.28125 -0.265625 -0.28125 -0.6875q0 -0.515625 0.4375 -0.796875q0.21875 -0.140625 0.9375 -0.140625l0 -4.53125q-0.59375 0 -0.875 -0.265625q-0.28125 -0.265625 -0.28125 -0.671875q0 -0.40625 0.28125 -0.65625q0.28125 -0.265625 0.96875 -0.265625l1.765625 0zm17.773743 5.078125l-7.65625 0q0.296875 0.734375 1.03125 1.1875q0.75 0.4375 2.015625 0.4375q1.03125 0 2.75 -0.453125q0.71875 -0.1875 0.984375 -0.1875q0.375 0 0.625 0.265625q0.265625 0.265625 0.265625 0.671875q0 0.359375 -0.28125 0.625q-0.359375 0.328125 -1.78125 0.640625q-1.40625 0.296875 -2.703125 0.296875q-2.25 0 -3.59375 -1.265625q-1.34375 -1.265625 -1.34375 -3.109375q0 -1.96875 1.453125 -3.203125q1.453125 -1.234375 3.359375 -1.234375q1.140625 0 2.078125 0.40625q0.953125 0.390625 1.421875 0.859375q0.65625 0.671875 1.09375 1.671875q0.28125 0.6875 0.28125 1.59375l0 0.796875zm-2.0625 -1.875q-0.4375 -0.796875 -1.125 -1.1875q-0.6875 -0.40625 -1.640625 -0.40625q-0.953125 0 -1.65625 0.40625q-0.6875 0.390625 -1.125 1.1875l5.546875 0zm8.117432 -1.34375l0 3.75q0 0.59375 0.25 0.78125q0.375 0.3125 1.359375 0.3125q1.4375 0 2.640625 -0.609375q0.46875 -0.234375 0.734375 -0.234375q0.359375 0 0.625 0.265625q0.265625 0.265625 0.265625 0.671875q0 0.359375 -0.28125 0.625q-0.453125 0.421875 -1.765625 0.78125q-1.3125 0.359375 -2.21875 0.359375q-1.734375 0 -2.609375 -0.75q-0.875 -0.75 -0.875 -1.84375l0 -4.109375l-0.671875 0q-0.671875 0 -0.96875 -0.25q-0.28125 -0.265625 -0.28125 -0.6875q0 -0.40625 0.28125 -0.65625q0.296875 -0.265625 0.96875 -0.265625l0.671875 0l0 -1.6875q0 -0.671875 0.265625 -0.953125q0.265625 -0.296875 0.671875 -0.296875q0.421875 0 0.671875 0.296875q0.265625 0.28125 0.265625 0.953125l0 1.6875l3.453125 0q0.671875 0 0.953125 0.265625q0.296875 0.25 0.296875 0.671875q0 0.40625 -0.296875 0.671875q-0.28125 0.25 -0.953125 0.25l-3.453125 0zm16.336182 3.21875l-7.65625 0q0.296875 0.734375 1.03125 1.1875q0.75 0.4375 2.015625 0.4375q1.03125 0 2.75 -0.453125q0.71875 -0.1875 0.984375 -0.1875q0.375 0 0.625 0.265625q0.265625 0.265625 0.265625 0.671875q0 0.359375 -0.28125 0.625q-0.359375 0.328125 -1.78125 0.640625q-1.40625 0.296875 -2.703125 0.296875q-2.25 0 -3.59375 -1.265625q-1.34375 -1.265625 -1.34375 -3.109375q0 -1.96875 1.453125 -3.203125q1.453125 -1.234375 3.359375 -1.234375q1.140625 0 2.078125 0.40625q0.953125 0.390625 1.421875 0.859375q0.65625 0.671875 1.09375 1.671875q0.28125 0.6875 0.28125 1.59375l0 0.796875zm-2.0625 -1.875q-0.4375 -0.796875 -1.125 -1.1875q-0.6875 -0.40625 -1.640625 -0.40625q-0.953125 0 -1.65625 0.40625q-0.6875 0.390625 -1.125 1.1875l5.546875 0zm10.586182 -1.015625q-0.453125 -0.296875 -0.953125 -0.4375q-0.5 -0.140625 -1.046875 -0.140625q-1.078125 0 -1.71875 0.359375q-0.28125 0.15625 -0.28125 0.34375q0 0.203125 0.375 0.40625q0.296875 0.140625 1.3125 0.28125q1.859375 0.25 2.578125 0.515625q0.96875 0.328125 1.484375 1.0q0.515625 0.65625 0.515625 1.40625q0 1.0 -0.890625 1.671875q-1.265625 0.96875 -3.28125 0.96875q-0.8125 0 -1.5 -0.140625q-0.6875 -0.140625 -1.265625 -0.40625q-0.125 0.109375 -0.28125 0.171875q-0.15625 0.0625 -0.328125 0.0625q-0.4375 0 -0.703125 -0.28125q-0.25 -0.28125 -0.25 -0.953125l0 -0.640625q0 -0.671875 0.25 -0.953125q0.265625 -0.296875 0.6875 -0.296875q0.34375 0 0.5625 0.1875q0.234375 0.1875 0.359375 0.640625q0.421875 0.375 1.015625 0.5625q0.609375 0.1875 1.390625 0.1875q1.296875 0 2.0 -0.40625q0.34375 -0.203125 0.34375 -0.421875q0 -0.359375 -0.484375 -0.59375q-0.484375 -0.234375 -2.0 -0.40625q-2.25 -0.234375 -3.0 -0.90625q-0.765625 -0.671875 -0.765625 -1.640625q0 -1.0 0.859375 -1.671875q1.140625 -0.90625 3.0 -0.90625q0.640625 0 1.234375 0.125q0.609375 0.125 1.15625 0.375q0.171875 -0.125 0.3125 -0.1875q0.15625 -0.0625 0.28125 -0.0625q0.390625 0 0.640625 0.28125q0.25 0.28125 0.25 0.96875l0 0.453125q0 0.609375 -0.140625 0.828125q-0.296875 0.421875 -0.796875 0.421875q-0.328125 0 -0.59375 -0.203125q-0.25 -0.21875 -0.328125 -0.5625z" fill-rule="nonzero"/><path fill="#00a866" d="m6.952756 523.46454l0 0c0 -20.5867 35.14741 -37.275574 78.50394 -37.275574l0 0c43.35652 0 78.50394 16.688873 78.50394 37.275574l0 0c0 20.586792 -35.147415 37.275635 -78.50394 37.275635l0 0c-43.35653 0 -78.50394 -16.688843 -78.50394 -37.275635z" fill-rule="evenodd"/><path stroke="#1f1f1a" stroke-width="1.0" stroke-linejoin="round" stroke-linecap="butt" d="m6.952756 523.46454l0 0c0 -20.5867 35.14741 -37.275574 78.50394 -37.275574l0 0c43.35652 0 78.50394 16.688873 78.50394 37.275574l0 0c0 20.586792 -35.147415 37.275635 -78.50394 37.275635l0 0c-43.35653 0 -78.50394 -16.688843 -78.50394 -37.275635z" fill-rule="evenodd"/><path fill="#000000" fill-opacity="0.0" d="m28.412073 498.60104l115.149605 0l0 35.149628l-115.149605 0z" fill-rule="evenodd"/><path fill="#000000" d="m60.915787 517.58356q0.328125 -0.3125 0.6875 -0.3125q0.390625 0 0.65625 0.296875q0.265625 0.28125 0.265625 0.9375l0 1.203125q0 0.671875 -0.265625 0.953125q-0.265625 0.28125 -0.671875 0.28125q-0.390625 0 -0.65625 -0.21875q-0.1875 -0.15625 -0.296875 -0.65625q-0.109375 -0.515625 -0.53125 -0.765625q-0.734375 -0.4375 -1.875 -0.4375q-1.328125 0 -2.125 0.78125q-0.796875 0.78125 -0.796875 1.953125q0 1.09375 0.765625 1.734375q0.765625 0.625 2.546875 0.625q1.15625 0 1.890625 -0.234375q0.4375 -0.140625 0.828125 -0.484375q0.40625 -0.359375 0.71875 -0.359375q0.375 0 0.65625 0.28125q0.28125 0.28125 0.28125 0.671875q0 0.609375 -0.84375 1.171875q-1.265625 0.828125 -3.6875 0.828125q-2.171875 0 -3.390625 -0.90625q-1.640625 -1.203125 -1.640625 -3.3125q0 -2.0 1.328125 -3.296875q1.34375 -1.3125 3.484375 -1.3125q0.765625 0 1.421875 0.15625q0.671875 0.140625 1.25 0.421875zm9.211197 -3.875l0 9.9375l2.234375 0q0.6875 0 0.96875 0.265625q0.28125 0.265625 0.28125 0.6875q0 0.40625 -0.28125 0.671875q-0.28125 0.25 -0.96875 0.25l-6.34375 0q-0.671875 0 -0.96875 -0.25q-0.28125 -0.265625 -0.28125 -0.6875q0 -0.40625 0.28125 -0.671875q0.296875 -0.265625 0.96875 -0.265625l2.25 0l0 -8.078125l-1.515625 0q-0.65625 0 -0.953125 -0.25q-0.296875 -0.265625 -0.296875 -0.6875q0 -0.40625 0.28125 -0.65625q0.296875 -0.265625 0.96875 -0.265625l3.375 0zm10.929947 0l0 1.96875l-2.21875 0l0 -1.96875l2.21875 0zm0.25 3.546875l0 6.390625l2.25 0q0.671875 0 0.953125 0.265625q0.296875 0.265625 0.296875 0.6875q0 0.40625 -0.296875 0.671875q-0.28125 0.25 -0.953125 0.25l-6.359375 0q-0.671875 0 -0.953125 -0.25q-0.28125 -0.265625 -0.28125 -0.6875q0 -0.40625 0.28125 -0.671875q0.28125 -0.265625 0.953125 -0.265625l2.25 0l0 -4.53125l-1.5 0q-0.671875 0 -0.96875 -0.25q-0.28125 -0.265625 -0.28125 -0.6875q0 -0.40625 0.28125 -0.65625q0.296875 -0.265625 0.96875 -0.265625l3.359375 0zm14.961189 5.078125l-7.6562424 0q0.296875 0.734375 1.03125 1.1875q0.75 0.4375 2.015625 0.4375q1.0312424 0 2.7499924 -0.453125q0.71875 -0.1875 0.984375 -0.1875q0.375 0 0.625 0.265625q0.265625 0.265625 0.265625 0.671875q0 0.359375 -0.28125 0.625q-0.359375 0.328125 -1.78125 0.640625q-1.40625 0.296875 -2.7031174 0.296875q-2.25 0 -3.59375 -1.265625q-1.34375 -1.265625 -1.34375 -3.109375q0 -1.96875 1.453125 -3.203125q1.453125 -1.234375 3.359375 -1.234375q1.1406174 0 2.0781174 0.40625q0.953125 0.390625 1.421875 0.859375q0.65625 0.671875 1.09375 1.671875q0.28125 0.6875 0.28125 1.59375l0 0.796875zm-2.0625 -1.875q-0.4375 -0.796875 -1.125 -1.1875q-0.6874924 -0.40625 -1.6406174 -0.40625q-0.953125 0 -1.65625 0.40625q-0.6875 0.390625 -1.125 1.1875l5.5468674 0zm6.679947 -3.203125l0 0.625q0.515625 -0.4375 1.125 -0.65625q0.625 -0.21875 1.34375 -0.21875q1.65625 0 2.625 1.03125q0.765625 0.8125 0.765625 2.140625l0 3.46875q0.578125 0 0.859375 0.265625q0.296875 0.265625 0.296875 0.6875q0 0.40625 -0.296875 0.671875q-0.28125 0.25 -0.953125 0.25l-1.6875 0q-0.671875 0 -0.96875 -0.25q-0.28125 -0.265625 -0.28125 -0.6875q0 -0.40625 0.28125 -0.671875q0.28125 -0.265625 0.875 -0.265625l0 -3.515625q0 -0.609375 -0.328125 -0.890625q-0.421875 -0.375 -1.28125 -0.375q-0.65625 0 -1.140625 0.25q-0.484375 0.25 -1.234375 1.0625l0 3.46875q0.71875 0 0.9375 0.140625q0.4375 0.28125 0.4375 0.8125q0 0.40625 -0.28125 0.671875q-0.28125 0.25 -0.96875 0.25l-2.109375 0q-0.6875 0 -0.96875 -0.25q-0.28125 -0.265625 -0.28125 -0.6875q0 -0.515625 0.4375 -0.796875q0.21875 -0.140625 0.9375 -0.140625l0 -4.53125q-0.59375 0 -0.875 -0.265625q-0.28125 -0.265625 -0.28125 -0.671875q0 -0.40625 0.28125 -0.65625q0.28125 -0.265625 0.96875 -0.265625l1.765625 0zm12.633072 1.859375l0 3.75q0 0.59375 0.25 0.78125q0.375 0.3125 1.359375 0.3125q1.4375 0 2.640625 -0.609375q0.46875 -0.234375 0.734375 -0.234375q0.359375 0 0.625 0.265625q0.265625 0.265625 0.265625 0.671875q0 0.359375 -0.28125 0.625q-0.453125 0.421875 -1.765625 0.78125q-1.3125 0.359375 -2.21875 0.359375q-1.734375 0 -2.609375 -0.75q-0.875 -0.75 -0.875 -1.84375l0 -4.109375l-0.671875 0q-0.671875 0 -0.96875 -0.25q-0.28125 -0.265625 -0.28125 -0.6875q0 -0.40625 0.28125 -0.65625q0.296875 -0.265625 0.96875 -0.265625l0.671875 0l0 -1.6875q0 -0.671875 0.265625 -0.953125q0.265625 -0.296875 0.671875 -0.296875q0.421875 0 0.671875 0.296875q0.265625 0.28125 0.265625 0.953125l0 1.6875l3.453125 0q0.671875 0 0.953125 0.265625q0.296875 0.25 0.296875 0.671875q0 0.40625 -0.296875 0.671875q-0.28125 0.25 -0.953125 0.25l-3.453125 0z" fill-rule="nonzero"/><path fill="#ffffff" d="m606.626 71.36432l0 0c-2.628357 -11.217903 6.0010376 -22.32294 22.226318 -28.602844c16.225342 -6.279907 37.20099 -6.633312 54.026306 -0.91025925l0 0c5.960022 -6.5225525 16.868652 -11.025925 29.426208 -12.147934c12.557495 -1.1220112 25.289062 1.2691269 34.343506 6.450138l0 0c5.0772095 -5.913765 15.046326 -9.88706 26.369873 -10.509953c11.323547 -0.6228924 22.398865 2.192772 29.29596 7.4478493l0 0c9.172668 -6.2685757 23.766663 -8.9079075 37.46698 -6.77594c13.700378 2.1319675 24.046387 8.652313 26.56134 16.739647l0 0c11.238098 1.7803001 20.599182 6.3060646 25.664673 12.407978c5.0654907 6.1019173 5.33844 13.181393 0.7484131 19.409328l0 0c11.066223 8.3647995 13.654907 19.510788 6.7999268 29.27848c-6.8549194 9.7677 -22.123596 16.689621 -40.108032 18.182625c-0.12670898 9.167328 -8.783508 17.579163 -22.633545 21.99321c-13.850037 4.4140472 -30.730713 4.141037 -44.135376 -0.7137909c-5.709656 10.979462 -21.780518 19.05806 -41.269287 20.745514c-19.48877 1.6874542 -38.901794 -3.3187256 -49.851868 -12.855682c-13.422546 4.7008057 -29.528442 6.054947 -44.68451 3.7569885c-15.156128 -2.2979736 -28.085815 -8.054489 -35.872314 -15.970993l0 0c-13.7161255 0.93218994 -26.977722 -3.1950226 -33.203125 -10.333313c-6.225403 -7.138298 -4.0892944 -15.768105 5.3480835 -21.606483l0 0c-12.235168 -4.1823273 -18.478271 -12.481461 -15.473816 -20.569725c3.0044556 -8.088264 14.575684 -14.132828 28.679688 -14.981689z" fill-rule="evenodd"/><path fill="#000000" fill-opacity="0.0" d="m593.1489 107.34809l0 0c5.7738037 1.9736557 12.443909 2.86895 19.114746 2.5656815m8.737305 29.374817c2.8687134 -0.19496155 5.680542 -0.6078186 8.363098 -1.2279358m72.18976 13.441437c-2.0177002 -1.7572784 -3.7069702 -3.6350708 -5.0391235 -5.60141m96.16376 -2.2887573l0 0c1.0409546 -2.001709 1.7153931 -4.06192 2.012085 -6.14624m64.75433 -15.1324005c0.13494873 -9.76004 -9.409973 -18.696434 -24.534973 -22.970741m57.842712 -24.489342c-2.449463 3.3234787 -6.1887817 6.2716904 -10.924866 8.61348m-15.485901 -40.431656l0 0c0.4173584 1.3420944 0.61053467 2.704361 0.5767822 4.0679207m-64.604004 -14.0312195l0 0c-2.288147 1.5636978 -4.173218 3.3111115 -5.5966797 5.187828m-50.06964 -2.1264076l0 0c-1.2194214 1.4202957 -2.1299438 2.9232101 -2.7106934 4.474125m-61.059998 1.2237892l0 0c3.5602417 1.2109947 6.853943 2.6685562 9.808716 4.340664m-86.06036 25.172596l0 0c0.36224365 1.5461197 0.93463135 3.0731735 1.711792 4.5668716" fill-rule="evenodd"/><path stroke="#000000" stroke-width="1.0" stroke-linejoin="round" stroke-linecap="butt" d="m606.626 71.36432l0 0c-2.628357 -11.217903 6.0010376 -22.32294 22.226318 -28.602844c16.225342 -6.279907 37.20099 -6.633312 54.026306 -0.91025925l0 0c5.960022 -6.5225525 16.868652 -11.025925 29.426208 -12.147934c12.557495 -1.1220112 25.289062 1.2691269 34.343506 6.450138l0 0c5.0772095 -5.913765 15.046326 -9.88706 26.369873 -10.509953c11.323547 -0.6228924 22.398865 2.192772 29.29596 7.4478493l0 0c9.172668 -6.2685757 23.766663 -8.9079075 37.46698 -6.77594c13.700378 2.1319675 24.046387 8.652313 26.56134 16.739647l0 0c11.238098 1.7803001 20.599182 6.3060646 25.664673 12.407978c5.0654907 6.1019173 5.33844 13.181393 0.7484131 19.409328l0 0c11.066223 8.3647995 13.654907 19.510788 6.7999268 29.27848c-6.8549194 9.7677 -22.123596 16.689621 -40.108032 18.182625c-0.12670898 9.167328 -8.783508 17.579163 -22.633545 21.99321c-13.850037 4.4140472 -30.730713 4.141037 -44.135376 -0.7137909c-5.709656 10.979462 -21.780518 19.05806 -41.269287 20.745514c-19.48877 1.6874542 -38.901794 -3.3187256 -49.851868 -12.855682c-13.422546 4.7008057 -29.528442 6.054947 -44.68451 3.7569885c-15.156128 -2.2979736 -28.085815 -8.054489 -35.872314 -15.970993l0 0c-13.7161255 0.93218994 -26.977722 -3.1950226 -33.203125 -10.333313c-6.225403 -7.138298 -4.0892944 -15.768105 5.3480835 -21.606483l0 0c-12.235168 -4.1823273 -18.478271 -12.481461 -15.473816 -20.569725c3.0044556 -8.088264 14.575684 -14.132828 28.679688 -14.981689z" fill-rule="evenodd"/><path stroke="#000000" stroke-width="1.0" stroke-linejoin="round" stroke-linecap="butt" d="m593.1489 107.34809l0 0c5.7738037 1.9736557 12.443909 2.86895 19.114746 2.5656815m8.737305 29.374817c2.8687134 -0.19496155 5.680542 -0.6078186 8.363098 -1.2279358m72.18976 13.441437c-2.0177002 -1.7572784 -3.7069702 -3.6350708 -5.0391235 -5.60141m96.16376 -2.2887573l0 0c1.0409546 -2.001709 1.7153931 -4.06192 2.012085 -6.14624m64.75433 -15.1324005c0.13494873 -9.76004 -9.409973 -18.696434 -24.534973 -22.970741m57.842712 -24.489342c-2.449463 3.3234787 -6.1887817 6.2716904 -10.924866 8.61348m-15.485901 -40.431656l0 0c0.4173584 1.3420944 0.61053467 2.704361 0.5767822 4.0679207m-64.604004 -14.0312195l0 0c-2.288147 1.5636978 -4.173218 3.3111115 -5.5966797 5.187828m-50.06964 -2.1264076l0 0c-1.2194214 1.4202957 -2.1299438 2.9232101 -2.7106934 4.474125m-61.059998 1.2237892l0 0c3.5602417 1.2109947 6.853943 2.6685562 9.808716 4.340664m-86.06036 25.172596l0 0c0.36224365 1.5461197 0.93463135 3.0731735 1.711792 4.5668716" fill-rule="evenodd"/><path fill="#000000" fill-opacity="0.0" d="m631.0289 63.984253l208.59845 0l0 50.83465l-208.59845 0z" fill-rule="evenodd"/><path fill="#1f1f1a" d="m672.6703 87.107376l0 1.921875l1.890625 0q0.671875 0 0.953125 0.265625q0.296875 0.265625 0.296875 0.6875q0 0.40625 -0.296875 0.671875q-0.28125 0.25 -0.953125 0.25l-4.046875 0q-0.671875 0 -0.96875 -0.25q-0.28125 -0.265625 -0.28125 -0.6875q0 -0.40625 0.28125 -0.671875q0.296875 -0.265625 0.96875 -0.265625l0.296875 0l0 -7.296875l-0.296875 0q-0.671875 0 -0.96875 -0.25q-0.28125 -0.265625 -0.28125 -0.6875q0 -0.421875 0.28125 -0.671875q0.296875 -0.265625 0.96875 -0.265625l4.296875 0q1.890625 0 3.0 1.046875q1.109375 1.03125 1.109375 2.515625q0 0.8125 -0.375 1.546875q-0.28125 0.546875 -0.9375 1.078125q-0.65625 0.53125 -1.34375 0.796875q-0.6875 0.265625 -1.828125 0.265625l-1.765625 0zm0 -1.859375l1.734375 0q1.21875 0 1.9375 -0.546875q0.71875 -0.5625 0.71875 -1.328125q0 -0.65625 -0.578125 -1.140625q-0.578125 -0.5 -1.65625 -0.5l-2.15625 0l0 3.515625zm13.211182 -6.15625l0 9.9375l2.234375 0q0.6875 0 0.96875 0.265625q0.28125 0.265625 0.28125 0.6875q0 0.40625 -0.28125 0.671875q-0.28125 0.25 -0.96875 0.25l-6.34375 0q-0.671875 0 -0.96875 -0.25q-0.28125 -0.265625 -0.28125 -0.6875q0 -0.40625 0.28125 -0.671875q0.296875 -0.265625 0.96875 -0.265625l2.25 0l0 -8.078125l-1.515625 0q-0.65625 0 -0.953125 -0.25q-0.296875 -0.265625 -0.296875 -0.6875q0 -0.40625 0.28125 -0.65625q0.296875 -0.265625 0.96875 -0.265625l3.375 0zm11.945557 11.8125l0 -0.4375q-0.703125 0.375 -1.5625 0.5625q-0.84375 0.1875 -1.53125 0.1875q-1.5 0 -2.4375 -0.796875q-0.9375 -0.796875 -0.9375 -1.765625q0 -1.171875 1.1875 -2.171875q1.203125 -1.015625 3.3125 -1.015625q0.859375 0 1.96875 0.1875l0 -0.453125q0 -0.421875 -0.359375 -0.6875q-0.359375 -0.265625 -1.375 -0.265625q-0.828125 0 -2.15625 0.328125q-0.484375 0.125 -0.765625 0.125q-0.359375 0 -0.625 -0.265625q-0.265625 -0.265625 -0.265625 -0.6875q0 -0.234375 0.09375 -0.40625q0.09375 -0.1875 0.25 -0.28125q0.171875 -0.109375 0.6875 -0.25q0.703125 -0.203125 1.421875 -0.3125q0.71875 -0.109375 1.296875 -0.109375q1.734375 0 2.6875 0.75q0.96875 0.75 0.96875 2.046875l0 3.84375l0.328125 0q0.671875 0 0.953125 0.265625q0.296875 0.265625 0.296875 0.6875q0 0.40625 -0.296875 0.671875q-0.28125 0.25 -0.953125 0.25l-2.1875 0zm0 -3.34375q-1.125 -0.21875 -2.078125 -0.21875q-1.125 0 -1.953125 0.5625q-0.515625 0.34375 -0.515625 0.71875q0 0.265625 0.25 0.421875q0.453125 0.296875 1.25 0.296875q0.671875 0 1.515625 -0.265625q0.859375 -0.265625 1.53125 -0.71875l0 -0.796875zm9.054993 -3.0625l0 3.75q0 0.59375 0.25 0.78125q0.375 0.3125 1.359375 0.3125q1.4375 0 2.640625 -0.609375q0.46875 -0.234375 0.734375 -0.234375q0.359375 0 0.625 0.265625q0.265625 0.265625 0.265625 0.671875q0 0.359375 -0.28125 0.625q-0.453125 0.421875 -1.765625 0.78125q-1.3125 0.359375 -2.21875 0.359375q-1.734375 0 -2.609375 -0.75q-0.875 -0.75 -0.875 -1.84375l0 -4.109375l-0.671875 0q-0.671875 0 -0.96875 -0.25q-0.28125 -0.265625 -0.28125 -0.6875q0 -0.40625 0.28125 -0.65625q0.296875 -0.265625 0.96875 -0.265625l0.671875 0l0 -1.6875q0 -0.671875 0.265625 -0.953125q0.265625 -0.296875 0.671875 -0.296875q0.421875 0 0.671875 0.296875q0.265625 0.28125 0.265625 0.953125l0 1.6875l3.453125 0q0.671875 0 0.953125 0.265625q0.296875 0.25 0.296875 0.671875q0 0.40625 -0.296875 0.671875q-0.28125 0.25 -0.953125 0.25l-3.453125 0zm11.633057 0l0 4.53125l2.671875 0q0.671875 0 0.953125 0.265625q0.28125 0.265625 0.28125 0.6875q0 0.40625 -0.28125 0.671875q-0.28125 0.25 -0.953125 0.25l-5.640625 0q-0.671875 0 -0.96875 -0.25q-0.28125 -0.265625 -0.28125 -0.6875q0 -0.40625 0.28125 -0.671875q0.296875 -0.265625 0.96875 -0.265625l1.109375 0l0 -4.53125l-0.890625 0q-0.671875 0 -0.96875 -0.25q-0.28125 -0.265625 -0.28125 -0.6875q0 -0.40625 0.28125 -0.65625q0.296875 -0.265625 0.96875 -0.265625l0.890625 0l0 -0.71875q0 -1.21875 0.90625 -2.015625q0.921875 -0.8125 2.65625 -0.8125q0.78125 0 1.796875 0.140625q1.015625 0.140625 1.296875 0.40625q0.296875 0.25 0.296875 0.640625q0 0.4375 -0.265625 0.703125q-0.25 0.265625 -0.625 0.265625q-0.171875 0 -0.515625 -0.0625q-1.15625 -0.234375 -2.046875 -0.234375q-0.9375 0 -1.296875 0.28125q-0.34375 0.28125 -0.34375 0.6875l0 0.71875l2.890625 0q0.671875 0 0.953125 0.265625q0.28125 0.25 0.28125 0.671875q0 0.40625 -0.28125 0.671875q-0.28125 0.25 -0.953125 0.25l-2.890625 0zm16.070557 2.421875q0 1.078125 -0.609375 2.09375q-0.59375 1.0 -1.78125 1.59375q-1.171875 0.59375 -2.453125 0.59375q-1.265625 0 -2.4375 -0.578125q-1.171875 -0.59375 -1.78125 -1.59375q-0.609375 -1.015625 -0.609375 -2.125q0 -1.125 0.609375 -2.203125q0.625 -1.078125 1.78125 -1.6875q1.171875 -0.625 2.4375 -0.625q1.28125 0 2.453125 0.640625q1.1875 0.625 1.78125 1.703125q0.609375 1.0625 0.609375 2.1875zm-1.875 0.015625q0 -0.90625 -0.640625 -1.65625q-0.890625 -1.03125 -2.328125 -1.03125q-1.265625 0 -2.109375 0.8125q-0.84375 0.8125 -0.84375 1.875q0 0.875 0.84375 1.640625q0.859375 0.765625 2.109375 0.765625q1.265625 0 2.109375 -0.765625q0.859375 -0.765625 0.859375 -1.640625zm7.8205566 -4.296875l0 1.15625q1.1875 -0.84375 1.859375 -1.125q0.6875 -0.28125 1.265625 -0.28125q0.921875 0 1.78125 0.671875q0.578125 0.453125 0.578125 0.921875q0 0.40625 -0.28125 0.6875q-0.28125 0.28125 -0.671875 0.28125q-0.34375 0 -0.734375 -0.34375q-0.375 -0.359375 -0.671875 -0.359375q-0.390625 0 -1.171875 0.5q-0.78125 0.484375 -1.953125 1.46875l0 2.8125l2.671875 0q0.671875 0 0.953125 0.265625q0.296875 0.265625 0.296875 0.6875q0 0.40625 -0.296875 0.671875q-0.28125 0.25 -0.953125 0.25l-5.640625 0q-0.671875 0 -0.96875 -0.25q-0.28125 -0.265625 -0.28125 -0.6875q0 -0.40625 0.28125 -0.671875q0.296875 -0.265625 0.96875 -0.265625l1.109375 0l0 -4.53125l-0.671875 0q-0.671875 0 -0.96875 -0.25q-0.28125 -0.265625 -0.28125 -0.6875q0 -0.40625 0.28125 -0.65625q0.296875 -0.265625 0.96875 -0.265625l2.53125 0zm8.711243 0l0 0.515625q0.453125 -0.4375 0.8125 -0.609375q0.375 -0.171875 0.859375 -0.171875q0.40625 0 0.8125 0.203125q0.40625 0.203125 0.78125 0.609375q0.484375 -0.40625 0.96875 -0.59375q0.5 -0.203125 1.03125 -0.203125q1.03125 0 1.6875 0.546875q0.84375 0.734375 0.84375 1.921875l0 4.171875q0.59375 0 0.875 0.265625q0.28125 0.265625 0.28125 0.6875q0 0.40625 -0.28125 0.671875q-0.28125 0.25 -0.953125 0.25l-1.78125 0l0 -5.890625q0 -0.4375 -0.15625 -0.59375q-0.15625 -0.171875 -0.46875 -0.171875q-0.3125 0 -0.578125 0.171875q-0.34375 0.21875 -0.828125 0.859375l0 3.75q0.59375 0 0.875 0.265625q0.28125 0.265625 0.28125 0.6875q0 0.40625 -0.28125 0.671875q-0.28125 0.25 -0.953125 0.25l-1.78125 0l0 -5.890625q0 -0.421875 -0.15625 -0.59375q-0.15625 -0.171875 -0.484375 -0.171875q-0.328125 0 -0.65625 0.21875q-0.3125 0.203125 -0.75 0.8125l0 3.75q0.578125 0 0.859375 0.265625q0.296875 0.265625 0.296875 0.6875q0 0.40625 -0.296875 0.671875q-0.28125 0.25 -0.953125 0.25l-1.6875 0q-0.671875 0 -0.953125 -0.25q-0.296875 -0.265625 -0.296875 -0.6875q0 -0.40625 0.28125 -0.671875q0.28125 -0.265625 0.875 -0.265625l0 -4.53125q-0.59375 0 -0.875 -0.265625q-0.28125 -0.265625 -0.28125 -0.671875q0 -0.40625 0.296875 -0.65625q0.28125 -0.265625 0.953125 -0.265625l1.78125 0zm27.547363 5.265625l-4.53125 0l-0.453125 1.125l0.453125 0q0.671875 0 0.953125 0.265625q0.296875 0.265625 0.296875 0.6875q0 0.40625 -0.296875 0.671875q-0.28125 0.25 -0.953125 0.25l-2.515625 0q-0.671875 0 -0.953125 -0.25q-0.296875 -0.265625 -0.296875 -0.6875q0 -0.421875 0.3125 -0.6875q0.296875 -0.265625 0.984375 -0.25l2.9375 -7.296875l-1.21875 0q-0.6875 0 -0.96875 -0.25q-0.28125 -0.265625 -0.28125 -0.6875q0 -0.421875 0.28125 -0.671875q0.28125 -0.265625 0.96875 -0.265625l4.03125 0l3.71875 9.171875q0.65625 0 0.859375 0.15625q0.421875 0.296875 0.421875 0.796875q0 0.40625 -0.28125 0.671875q-0.28125 0.25 -0.953125 0.25l-2.515625 0q-0.671875 0 -0.96875 -0.25q-0.28125 -0.265625 -0.28125 -0.6875q0 -0.40625 0.28125 -0.671875q0.296875 -0.265625 0.96875 -0.265625l0.453125 0l-0.453125 -1.125zm-0.765625 -1.875l-1.5 -3.703125l-1.515625 3.703125l3.015625 0zm8.601807 1.078125l0 1.921875l1.890625 0q0.671875 0 0.953125 0.265625q0.296875 0.265625 0.296875 0.6875q0 0.40625 -0.296875 0.671875q-0.28125 0.25 -0.953125 0.25l-4.046875 0q-0.671875 0 -0.96875 -0.25q-0.28125 -0.265625 -0.28125 -0.6875q0 -0.40625 0.28125 -0.671875q0.296875 -0.265625 0.96875 -0.265625l0.296875 0l0 -7.296875l-0.296875 0q-0.671875 0 -0.96875 -0.25q-0.28125 -0.265625 -0.28125 -0.6875q0 -0.421875 0.28125 -0.671875q0.296875 -0.265625 0.96875 -0.265625l4.296875 0q1.890625 0 3.0 1.046875q1.109375 1.03125 1.109375 2.515625q0 0.8125 -0.375 1.546875q-0.28125 0.546875 -0.9375 1.078125q-0.65625 0.53125 -1.34375 0.796875q-0.6875 0.265625 -1.828125 0.265625l-1.765625 0zm0 -1.859375l1.734375 0q1.21875 0 1.9375 -0.546875q0.71875 -0.5625 0.71875 -1.328125q0 -0.65625 -0.578125 -1.140625q-0.578125 -0.5 -1.65625 -0.5l-2.15625 0l0 3.515625zm13.211243 -3.515625l0 7.296875l1.890625 0q0.671875 0 0.953125 0.265625q0.296875 0.265625 0.296875 0.6875q0 0.40625 -0.296875 0.671875q-0.28125 0.25 -0.953125 0.25l-5.640625 0q-0.671875 0 -0.96875 -0.25q-0.28125 -0.265625 -0.28125 -0.6875q0 -0.40625 0.28125 -0.671875q0.296875 -0.265625 0.96875 -0.265625l1.890625 0l0 -7.296875l-1.890625 0q-0.671875 0 -0.96875 -0.25q-0.28125 -0.265625 -0.28125 -0.6875q0 -0.421875 0.28125 -0.671875q0.296875 -0.265625 0.96875 -0.265625l5.640625 0q0.671875 0 0.953125 0.265625q0.296875 0.25 0.296875 0.671875q0 0.421875 -0.296875 0.6875q-0.28125 0.25 -0.953125 0.25l-1.890625 0z" fill-rule="nonzero"/><path fill="#000000" fill-opacity="0.0" d="m143.56168 516.17584l69.51181 -65.5748" fill-rule="evenodd"/><path stroke="#000000" stroke-width="1.0" stroke-linejoin="round" stroke-linecap="butt" d="m147.92612 512.0586l60.78293 -57.3403" fill-rule="evenodd"/><path fill="#000000" stroke="#000000" stroke-width="1.0" stroke-linecap="butt" d="m146.79268 510.85712l-2.1676025 4.3155518l4.4344635 -1.9125977z" fill-rule="evenodd"/><path fill="#000000" stroke="#000000" stroke-width="1.0" stroke-linecap="butt" d="m209.84248 455.91977l2.1676178 -4.3155518l-4.4344788 1.9125977z" fill-rule="evenodd"/><path fill="#000000" fill-opacity="0.0" d="m143.56168 516.17584l69.51181 90.236206" fill-rule="evenodd"/><path stroke="#000000" stroke-width="1.0" stroke-linejoin="round" stroke-linecap="butt" d="m147.22324 520.9291l62.18869 80.7298" fill-rule="evenodd"/><path fill="#000000" stroke="#000000" stroke-width="1.0" stroke-linecap="butt" d="m148.53174 519.9211l-4.0779266 -2.5870972l1.460907 4.6030884z" fill-rule="evenodd"/><path fill="#000000" stroke="#000000" stroke-width="1.0" stroke-linecap="butt" d="m208.10344 602.6669l4.0779114 2.5870972l-1.460907 -4.6030884z" fill-rule="evenodd"/><path fill="#000000" fill-opacity="0.0" d="m333.01575 604.0184l95.40158 -51.496033" fill-rule="evenodd"/><path stroke="#000000" stroke-width="1.0" stroke-linejoin="round" stroke-linecap="butt" d="m338.29565 601.1684l84.84177 -45.79608" fill-rule="evenodd"/><path fill="#000000" stroke="#000000" stroke-width="1.0" stroke-linecap="butt" d="m337.51108 599.71484l-3.2088623 3.6091309l4.778015 -0.7020874z" fill-rule="evenodd"/><path fill="#000000" stroke="#000000" stroke-width="1.0" stroke-linecap="butt" d="m423.922 556.8258l3.2088623 -3.6090698l-4.778015 0.7020874z" fill-rule="evenodd"/><path fill="#000000" fill-opacity="0.0" d="m333.01575 452.01837l96.15747 43.685028" fill-rule="evenodd"/><path stroke="#000000" stroke-width="1.0" stroke-linejoin="round" stroke-linecap="butt" d="m338.47842 454.50012l85.23212 38.721527" fill-rule="evenodd"/><path fill="#000000" stroke="#000000" stroke-width="1.0" stroke-linecap="butt" d="m339.16162 452.9963l-4.8148804 -0.3732605l3.4484863 3.38089z" fill-rule="evenodd"/><path fill="#000000" stroke="#000000" stroke-width="1.0" stroke-linecap="butt" d="m423.02734 494.7255l4.814911 0.37322998l-3.4485168 -3.3808594z" fill-rule="evenodd"/><path fill="#000000" fill-opacity="0.0" d="m623.8504 516.0184l-59.811035 3.9685059" fill-rule="evenodd"/><path stroke="#000000" stroke-width="1.0" stroke-linejoin="round" stroke-linecap="butt" d="m617.8636 516.4156l-47.837402 3.1740723" fill-rule="evenodd"/><path fill="#000000" stroke="#000000" stroke-width="1.0" stroke-linecap="butt" d="m617.9729 518.0637l4.4188232 -1.9485474l-4.637512 -1.3476562z" fill-rule="evenodd"/><path fill="#000000" stroke="#000000" stroke-width="1.0" stroke-linecap="butt" d="m569.9169 517.9415l-4.4188232 1.9485474l4.637512 1.3476562z" fill-rule="evenodd"/><path fill="#000000" fill-opacity="0.0" d="m623.5853 387.0386l54.834595 103.55905" fill-rule="evenodd"/><path stroke="#000000" stroke-width="1.0" stroke-linejoin="round" stroke-linecap="butt" d="m626.393 392.34113l49.21924 92.95398" fill-rule="evenodd"/><path fill="#000000" stroke="#000000" stroke-width="1.0" stroke-linecap="butt" d="m627.8527 391.5682l-3.583313 -3.2376404l0.6638794 4.783478z" fill-rule="evenodd"/><path fill="#000000" stroke="#000000" stroke-width="1.0" stroke-linecap="butt" d="m674.1525 486.06805l3.583313 3.2376404l-0.6638794 -4.7835083z" fill-rule="evenodd"/><path fill="#000000" fill-opacity="0.0" d="m799.5853 387.0386l-121.165405 103.55905" fill-rule="evenodd"/><path stroke="#000000" stroke-width="1.0" stroke-linejoin="round" stroke-linecap="butt" d="m795.0243 390.9369l-112.043274 95.76245" fill-rule="evenodd"/><path fill="#000000" stroke="#000000" stroke-width="1.0" stroke-linecap="butt" d="m796.0974 392.1925l2.376587 -4.2041016l-4.522888 1.6928711z" fill-rule="evenodd"/><path fill="#000000" stroke="#000000" stroke-width="1.0" stroke-linecap="butt" d="m681.90784 485.44373l-2.376587 4.2041016l4.522888 -1.6928711z" fill-rule="evenodd"/><path fill="#000000" fill-opacity="0.0" d="m623.5853 308.20395l116.59839 -144.18896" fill-rule="evenodd"/><path stroke="#000000" stroke-width="1.0" stroke-linejoin="round" stroke-linecap="butt" d="m627.35803 303.5385l109.05298 -134.85806" fill-rule="evenodd"/><path fill="#000000" stroke="#000000" stroke-width="1.0" stroke-linecap="butt" d="m626.07367 302.4999l-1.5691528 4.567322l4.1378784 -2.4901428z" fill-rule="evenodd"/><path fill="#000000" stroke="#000000" stroke-width="1.0" stroke-linecap="butt" d="m737.6954 169.71904l1.5691528 -4.5673065l-4.1378784 2.4901276z" fill-rule="evenodd"/><path fill="#000000" fill-opacity="0.0" d="m740.18896 164.02463l59.40161 144.18896" fill-rule="evenodd"/><path stroke="#000000" stroke-width="1.0" stroke-linejoin="round" stroke-linecap="butt" d="m742.4744 169.5723l54.83069 133.09363" fill-rule="evenodd"/><path fill="#000000" stroke="#000000" stroke-width="1.0" stroke-linecap="butt" d="m744.00165 168.94313l-3.2557983 -3.5668182l0.20141602 4.8251495z" fill-rule="evenodd"/><path fill="#000000" stroke="#000000" stroke-width="1.0" stroke-linecap="butt" d="m795.7779 303.2951l3.2557983 3.566803l-0.20141602 -4.8251343z" fill-rule="evenodd"/></g></svg>